<svg width="46" height="46" viewBox="0 0 46 46" fill="none" xmlns="http://www.w3.org/2000/svg">
<mask id="mask0_1_6544" style="mask-type:alpha" maskUnits="userSpaceOnUse" x="0" y="0" width="46" height="46">
<rect width="45.0946" height="45.0708" fill="black"/>
</mask>
<g mask="url(#mask0_1_6544)">
<path d="M44.8717 26.3251C42.3073 23.0473 38.3173 20.939 33.833 20.939C29.6026 20.939 25.8139 22.8164 23.2451 25.7805C22.6516 26.3279 22.2772 27.1098 22.2772 27.981H22.2617V42.1069H22.2631C22.2803 43.7468 23.6133 45.0712 25.2573 45.0712C26.9012 45.0712 28.2343 43.7468 28.2512 42.1069H28.2841V31.8607C29.9859 32.5965 31.8622 33.0052 33.8346 33.0052C38.3178 33.0052 42.3071 30.8975 44.8717 27.621C45.1689 27.2412 45.1689 26.7051 44.8717 26.3251Z" fill="#015E55"/>
<path d="M0.222923 18.7461C2.78724 22.0238 6.77727 24.1322 11.2616 24.1322C15.4919 24.1322 19.2807 22.2548 21.8495 19.2907C22.443 18.7433 22.8174 17.9614 22.8174 17.0902H22.8329V2.96429H22.8315C22.8143 1.32436 21.4812 0 19.8373 0C18.1934 0 16.8603 1.32436 16.8434 2.96429H16.8104V13.2104C15.1087 12.4747 13.2324 12.066 11.2599 12.066C6.7768 12.066 2.78747 14.1736 0.222923 17.4502C-0.0743075 17.8299 -0.0743075 18.3661 0.222923 18.7461Z" fill="#015E55"/>
</g>
</svg>
