<svg width="123" height="32" viewBox="0 0 123 32" fill="none" xmlns="http://www.w3.org/2000/svg">
<mask id="mask0_1_6539" style="mask-type:alpha" maskUnits="userSpaceOnUse" x="0" y="0" width="123" height="32">
<rect width="122.943" height="31.8588" fill="black"/>
</mask>
<g mask="url(#mask0_1_6539)">
<path d="M0 30.8638V23.2276C0 22.6451 0.472213 22.1729 1.05477 22.1729H4.28552C4.98445 22.1729 5.58366 22.2924 6.08333 22.531C6.58317 22.7701 6.96789 23.1063 7.23782 23.5396C7.50741 23.973 7.64273 24.4863 7.64273 25.0788C7.64273 25.6624 7.50546 26.1756 7.23109 26.6178C6.95691 27.0602 6.57219 27.4029 6.0766 27.6462C5.58154 27.8895 4.98445 28.011 4.28552 28.011H2.76615C2.39242 28.011 2.08936 27.708 2.08936 27.3342C2.08936 26.9605 2.39242 26.6575 2.76615 26.6575H4.20581C4.75419 26.6575 5.17681 26.5163 5.47331 26.2329C5.76929 25.9502 5.91754 25.5653 5.91754 25.0788C5.91754 24.6011 5.76929 24.2252 5.47331 23.951C5.17681 23.6766 4.75419 23.5396 4.20581 23.5396H2.40145C2.02772 23.5396 1.72466 23.8426 1.72466 24.2164V30.8638C1.72466 31.3401 1.3387 31.7262 0.862417 31.7262C0.386131 31.7262 0 31.3401 0 30.8638Z" fill="#015E55"/>
<path d="M15.2456 27.361C15.7495 27.1311 16.1367 26.8082 16.4063 26.3923C16.6765 25.9766 16.8112 25.4945 16.8112 24.9461C16.8112 24.3887 16.6765 23.9025 16.4063 23.4864C16.1367 23.0707 15.7495 22.748 15.2456 22.5179C14.7412 22.288 14.1487 22.1729 13.4675 22.1729H10.4837C9.90393 22.1729 9.43384 22.6428 9.43384 23.2227V30.8177C9.43384 31.2472 9.72734 31.6454 10.1514 31.7143C10.6918 31.8021 11.1585 31.3875 11.1585 30.8638V24.1963C11.1585 23.8335 11.4525 23.5396 11.8153 23.5396H13.4147C13.9802 23.5396 14.4094 23.6613 14.7013 23.9046C14.9932 24.148 15.1394 24.495 15.1394 24.9461C15.1394 25.3971 14.9911 25.7511 14.6946 26.0074C14.3986 26.2641 13.9719 26.3923 13.4147 26.3923H12.0269C11.6642 26.3923 11.3702 26.6863 11.3702 27.0491C11.3702 27.1178 11.37 27.7218 11.6918 28.0477L14.5242 31.2947C14.7532 31.5574 15.0806 31.7129 15.4275 31.7253C16.1245 31.7502 16.4903 30.8987 16.0062 30.3967L13.4105 27.7056H13.4675C14.1487 27.7056 14.7412 27.5909 15.2456 27.361Z" fill="#015E55"/>
<path d="M18.6814 30.7477C18.6814 30.6073 18.7246 30.4704 18.8052 30.3554L24.0681 22.8496L24.5325 23.5397H19.5242C19.1465 23.5397 18.8406 23.2337 18.8406 22.8562C18.8406 22.4789 19.1465 22.1729 19.5242 22.1729H24.8147C25.3553 22.1729 25.7935 22.6111 25.7935 23.1515C25.7935 23.2917 25.7503 23.4287 25.6697 23.5436L20.4596 30.9829L20.0081 30.3595H25.1895C25.5667 30.3595 25.8728 30.6654 25.8728 31.0428C25.8728 31.4203 25.5667 31.7262 25.1895 31.7262H19.6599C19.1194 31.7262 18.6814 31.2882 18.6814 30.7477Z" fill="#015E55"/>
<path d="M34.9074 22.2083C34.5442 22.098 34.1713 22.2534 33.9885 22.5613L32.1629 25.5448C31.9464 25.8981 31.4299 25.8889 31.2264 25.5279L29.5537 22.5599C29.4103 22.3198 29.1516 22.1729 28.872 22.1729H28.8474C28.2153 22.1729 27.8288 22.8666 28.1613 23.4042L30.7018 27.5105C30.7807 27.6382 30.8226 27.7851 30.8226 27.935V30.9192C30.8226 31.3648 31.1837 31.726 31.6294 31.726H31.7404C32.1861 31.726 32.5472 31.3648 32.5472 30.9192V27.9441C32.5472 27.7883 32.5922 27.6361 32.6769 27.5055L35.3026 23.4505C35.6094 22.9767 35.4475 22.3725 34.9074 22.2083Z" fill="#015E55"/>
<path d="M50.0747 30.8638V23.0353C50.0747 22.559 50.4608 22.1729 50.9371 22.1729C51.4134 22.1729 51.7995 22.559 51.7995 23.0353V30.8638C51.7995 31.3401 51.4134 31.7262 50.9371 31.7262C50.4608 31.7262 50.0747 31.3401 50.0747 30.8638Z" fill="#015E55"/>
<path d="M55.8331 29.6893V28.15C55.8331 27.7801 56.1331 27.4802 56.5031 27.4802H59.8467C60.217 27.4802 60.5169 27.1801 60.5169 26.8101C60.5169 26.4401 60.217 26.14 59.8467 26.14H56.5031C56.1331 26.14 55.8331 25.8401 55.8331 25.47V24.2096C55.8331 23.8396 56.1331 23.5396 56.5031 23.5396H60.1656C60.5359 23.5396 60.8356 23.2395 60.8356 22.8695V22.8427C60.8356 22.4727 60.5359 22.1729 60.1656 22.1729H55.8331H54.9311H54.7785C54.4083 22.1729 54.1084 22.4727 54.1084 22.8427V31.056C54.1084 31.4261 54.4083 31.726 54.7785 31.726H54.9311H55.8331H60.3112C60.6814 31.726 60.9814 31.4261 60.9814 31.056V31.0294C60.9814 30.6592 60.6814 30.3593 60.3112 30.3593H56.5031C56.1331 30.3593 55.8331 30.0593 55.8331 29.6893Z" fill="#015E55"/>
<path d="M64.8552 29.676V22.8562C64.8552 22.4788 64.5494 22.1729 64.1719 22.1729H63.8139C63.4364 22.1729 63.1306 22.4788 63.1306 22.8562V31.0427C63.1306 31.4201 63.4364 31.7262 63.8139 31.7262H63.953H64.8552H68.869C69.2465 31.7262 69.5523 31.4201 69.5523 31.0427C69.5523 30.6654 69.2465 30.3593 68.869 30.3593H65.5386C65.1611 30.3593 64.8552 30.0534 64.8552 29.676Z" fill="#015E55"/>
<path d="M73.3336 29.6893V28.15C73.3336 27.7801 73.6337 27.4802 74.0038 27.4802H77.3474C77.7175 27.4802 78.0174 27.1801 78.0174 26.8101C78.0174 26.4401 77.7175 26.14 77.3474 26.14H74.0038C73.6337 26.14 73.3336 25.8401 73.3336 25.47V24.2096C73.3336 23.8396 73.6337 23.5396 74.0038 23.5396H77.6662C78.0363 23.5396 78.3363 23.2395 78.3363 22.8695V22.8427C78.3363 22.4727 78.0363 22.1729 77.6662 22.1729H73.3336H72.4317H72.2791C71.9088 22.1729 71.6091 22.4727 71.6091 22.8427V31.056C71.6091 31.4261 71.9088 31.726 72.2791 31.726H72.4317H73.3336H77.8119C78.182 31.726 78.4819 31.4261 78.4819 31.056V31.0294C78.4819 30.6592 78.182 30.3593 77.8119 30.3593H74.0038C73.6337 30.3593 73.3336 30.0593 73.3336 29.6893Z" fill="#015E55"/>
<path d="M87.629 22.1844C87.218 22.2514 86.9334 22.6373 86.9334 23.0537V28.9889C86.9334 29.1542 86.7137 29.2116 86.6329 29.0674L83.1401 22.8372C82.9102 22.427 82.4765 22.1729 82.0062 22.1729H81.9557C81.2244 22.1729 80.6313 22.7659 80.6313 23.4974V30.8456C80.6313 31.2617 80.9157 31.6479 81.3268 31.7146C81.8504 31.8 82.3032 31.398 82.3032 30.8903V24.9098C82.3032 24.7445 82.5227 24.6871 82.6034 24.8313L86.0971 31.062C86.3272 31.4722 86.7608 31.7262 87.2313 31.7262H87.3004C88.0213 31.7262 88.6053 31.142 88.6053 30.4213V23.0089C88.6053 22.5011 88.1528 22.0992 87.629 22.1844Z" fill="#015E55"/>
<path d="M90.9143 30.8638V23.0353C90.9143 22.559 91.3004 22.1729 91.7768 22.1729C92.253 22.1729 92.639 22.559 92.639 23.0353V30.8638C92.639 31.3401 92.253 31.7262 91.7768 31.7262C91.3004 31.7262 90.9143 31.3401 90.9143 30.8638Z" fill="#015E55"/>
<path d="M102.256 31.7262H102.365C102.906 31.7262 103.282 31.188 103.096 30.6805L100.314 23.0953C100.111 22.5413 99.5842 22.1729 98.9938 22.1729C98.4047 22.1729 97.8774 22.5404 97.6738 23.0937L94.882 30.6796C94.6952 31.1873 95.0709 31.7262 95.6121 31.7262H95.6411C95.9729 31.7262 96.2677 31.5159 96.3763 31.2025L96.9797 29.4587C97.0018 29.3941 97.0623 29.3511 97.1302 29.3511H100.769C100.838 29.3511 100.898 29.3943 100.92 29.4588L101.521 31.2016C101.629 31.5154 101.924 31.7262 102.256 31.7262ZM97.567 27.7593L98.8026 24.1862C98.8522 24.0429 99.0551 24.0431 99.1046 24.1864L100.335 27.7595C100.371 27.8631 100.294 27.9712 100.184 27.9712H97.7179C97.6082 27.9712 97.5311 27.8629 97.567 27.7593Z" fill="#015E55"/>
<path d="M112.391 30.4241L108.836 26.8789C108.772 26.8156 108.773 26.7125 108.837 26.65L112.075 23.4943C112.569 23.0121 112.228 22.1729 111.537 22.1729H111.529C111.26 22.1729 111.002 22.2807 110.813 22.4722L107.336 26.0001C107.235 26.1025 107.061 26.0311 107.061 25.8873V23.0353C107.061 22.559 106.675 22.1729 106.199 22.1729C105.723 22.1729 105.337 22.559 105.337 23.0353V30.8638C105.337 31.3401 105.723 31.7262 106.199 31.7262C106.675 31.7262 107.061 31.3401 107.061 30.8638V27.6881C107.061 27.5434 107.238 27.4725 107.338 27.5769L110.952 31.3427C111.188 31.5876 111.512 31.7262 111.852 31.7262C112.532 31.7262 112.872 30.904 112.391 30.4241Z" fill="#015E55"/>
<path d="M118.99 31.8588C117.698 31.8588 116.721 31.4918 116.057 30.7575C115.394 30.0235 115.062 28.9709 115.062 27.5997V23.0353C115.062 22.559 115.448 22.1729 115.925 22.1729C116.401 22.1729 116.787 22.559 116.787 23.0353V27.8519C116.787 28.7274 116.981 29.3798 117.371 29.8088C117.76 30.2382 118.304 30.4525 119.003 30.4525C119.701 30.4525 120.246 30.2382 120.635 29.8088C121.024 29.3798 121.219 28.7321 121.219 27.8651V23.0353C121.219 22.559 121.605 22.1729 122.081 22.1729C122.557 22.1729 122.943 22.559 122.943 23.0353V27.6128C122.943 28.9753 122.61 30.0235 121.942 30.7575C121.273 31.4918 120.29 31.8588 118.99 31.8588Z" fill="#015E55"/>
<path d="M40.8401 30.7477C40.8401 30.6073 40.8833 30.4704 40.9639 30.3554L46.2268 22.8496L46.6912 23.5397H41.6826C41.3052 23.5397 40.9993 23.2337 40.9993 22.8562C40.9993 22.4789 41.3052 22.1729 41.6826 22.1729H46.9734C47.5137 22.1729 47.952 22.6111 47.952 23.1515C47.952 23.2917 47.9087 23.4287 47.8283 23.5436L42.6182 30.9829L42.1668 30.3595H47.348C47.7255 30.3595 48.0313 30.6654 48.0313 31.0428C48.0313 31.4203 47.7255 31.7262 47.348 31.7262H41.8186C41.2781 31.7262 40.8401 31.2882 40.8401 30.7477Z" fill="#015E55"/>
<path d="M28.7813 6.83023C28.3073 6.83023 27.8721 6.74538 27.4753 6.57641C27.0782 6.40672 26.7326 6.16849 26.4373 5.86083C26.142 5.55334 25.9141 5.19006 25.7541 4.7717C25.5942 4.35333 25.5139 3.89494 25.5139 3.39634C25.5139 2.89844 25.5942 2.44253 25.7541 2.03072C25.9141 1.6182 26.1401 1.26023 26.4327 0.955225C26.7247 0.65075 27.0692 0.415177 27.4662 0.249389C27.8631 0.0828937 28.3015 0 28.7813 0C29.3104 0 29.7876 0.105034 30.2118 0.314039C30.6366 0.523222 30.9855 0.816538 31.2594 1.1954C31.3766 1.35712 31.4743 1.53123 31.5526 1.71721C31.7141 2.10086 31.4435 2.52861 31.0275 2.52861C30.7838 2.52861 30.5669 2.37239 30.4906 2.14124C30.3868 1.8272 30.2171 1.57321 29.9812 1.37997C29.6549 1.11251 29.258 0.978428 28.7904 0.978428C28.3786 0.978428 28.0184 1.07691 27.711 1.27369C27.4027 1.47065 27.1632 1.74909 26.991 2.10901C26.8187 2.4691 26.7326 2.89525 26.7326 3.3873C26.7326 3.89175 26.8187 4.32747 26.991 4.69341C27.1632 5.05917 27.406 5.34416 27.72 5.54679C28.0341 5.75013 28.3934 5.8518 28.8001 5.8518C29.2553 5.8518 29.6459 5.71771 29.9721 5.45026C30.2097 5.25489 30.3837 5.00019 30.494 4.68562C30.5731 4.46014 30.7879 4.31011 31.0271 4.31011H31.0285C31.4468 4.31011 31.7193 4.74283 31.5516 5.12612C31.4718 5.30803 31.3746 5.47913 31.2594 5.63943C30.9855 6.02077 30.6366 6.3148 30.2118 6.52079C29.7876 6.72732 29.3104 6.83023 28.7813 6.83023Z" fill="#015E55"/>
<path d="M37.4478 0.69269V2.61678C37.4478 2.72128 37.3631 2.80577 37.2586 2.80577H34.4901C34.3855 2.80577 34.3009 2.72128 34.3009 2.61678V0.69269C34.3009 0.361115 34.0321 0.0927734 33.7009 0.0927734C33.3696 0.0927734 33.1008 0.361115 33.1008 0.69269V6.13781C33.1008 6.46885 33.3696 6.73755 33.7009 6.73755C34.0321 6.73755 34.3009 6.46885 34.3009 6.13781V3.93635C34.3009 3.83184 34.3855 3.74736 34.4901 3.74736H37.2586C37.3631 3.74736 37.4478 3.83184 37.4478 3.93635V6.13781C37.4478 6.46885 37.7163 6.73755 38.0477 6.73755C38.3792 6.73755 38.6477 6.46885 38.6477 6.13781V0.69269C38.6477 0.361115 38.3792 0.0927734 38.0477 0.0927734C37.7163 0.0927734 37.4478 0.361115 37.4478 0.69269Z" fill="#015E55"/>
<path d="M43.3457 6.83023C42.8651 6.83023 42.4223 6.74662 42.0161 6.58083C41.6101 6.41452 41.2579 6.17753 40.9595 5.86986C40.661 5.56238 40.4305 5.19786 40.2673 4.7763C40.1042 4.35475 40.0225 3.89175 40.0225 3.3873C40.0225 2.71636 40.1643 2.12725 40.4473 1.61961C40.7302 1.11251 41.1226 0.715578 41.6238 0.429347C42.1256 0.143115 42.6961 0 43.3359 0C43.988 0 44.5649 0.143115 45.0668 0.429347C45.568 0.715578 45.9604 1.11375 46.2434 1.62475C46.5263 2.13504 46.6682 2.7261 46.6682 3.39634C46.6682 3.90149 46.5864 4.36254 46.4233 4.78073C46.2602 5.1998 46.0297 5.56238 45.7312 5.86986C45.4327 6.17753 45.0805 6.41452 44.6745 6.58083C44.2683 6.74662 43.8255 6.83023 43.3457 6.83023ZM43.3359 5.8518C43.7543 5.8518 44.122 5.74694 44.4394 5.53776C44.7559 5.32857 45.0033 5.03791 45.1821 4.6656C45.3608 4.29311 45.4496 3.86447 45.4496 3.37827C45.4496 2.89844 45.3621 2.47813 45.1865 2.11822C45.0112 1.75812 44.7649 1.47845 44.4484 1.2783C44.131 1.07815 43.7607 0.978428 43.3359 0.978428C42.9176 0.978428 42.5498 1.07815 42.2331 1.2783C41.9165 1.47845 41.6719 1.75688 41.4995 2.11361C41.3274 2.47034 41.2411 2.89189 41.2411 3.37827C41.2411 3.87032 41.3286 4.30091 41.5041 4.67003C41.6794 5.03915 41.9257 5.32857 42.2422 5.53776C42.5595 5.74694 42.9241 5.8518 43.3359 5.8518Z" fill="#015E55"/>
<path d="M53.6505 1.64738C53.352 1.15197 52.9318 0.769384 52.3905 0.49874C51.849 0.228095 51.215 0.0927734 50.4892 0.0927734H49.2433H48.7823C48.3742 0.0927734 48.0435 0.423462 48.0435 0.831554V5.99895C48.0435 6.40686 48.3742 6.73773 48.7823 6.73773H49.2433H50.4982C51.2183 6.73773 51.8471 6.59904 52.3859 6.32255C52.9239 6.04553 53.3443 5.65621 53.6459 5.15513C53.947 4.65334 54.0979 4.06724 54.0979 3.39647C54.0979 2.72624 53.9482 2.1428 53.6505 1.64738ZM52.5982 4.62411C52.4105 4.98739 52.1379 5.27044 51.781 5.47307C51.4243 5.6764 50.9937 5.77807 50.4892 5.77807H49.7196C49.4565 5.77807 49.2433 5.56482 49.2433 5.30179V1.52853C49.2433 1.26551 49.4565 1.05225 49.7196 1.05225H50.4892C50.9995 1.05225 51.432 1.14949 51.7856 1.34309C52.1399 1.53668 52.4105 1.80927 52.5982 2.15962C52.7859 2.5105 52.8793 2.91665 52.8793 3.37823C52.8793 3.84584 52.7859 4.26084 52.5982 4.62411Z" fill="#015E55"/>
<path d="M50.8298 17.8959C49.9933 17.8959 49.327 17.7035 48.8324 17.319C48.5424 17.0944 48.3229 16.8155 48.1732 16.4823C48.0069 16.1121 48.2811 15.6904 48.6867 15.6904C48.9202 15.6904 49.1212 15.8395 49.207 16.0565C49.2997 16.2914 49.4499 16.4846 49.6577 16.6364C49.9653 16.8611 50.3687 16.9731 50.8667 16.9731C51.2792 16.9731 51.5946 16.898 51.8129 16.7473C52.0315 16.5964 52.1403 16.386 52.1403 16.1146C52.1403 15.8749 52.073 15.6806 51.9377 15.5331C51.8024 15.3854 51.5744 15.2656 51.2546 15.1737L50.0547 14.8136C49.4454 14.6291 48.998 14.3857 48.7117 14.0846C48.4255 13.7828 48.2824 13.4046 48.2824 12.9487C48.2824 12.5674 48.381 12.2353 48.5785 11.9522C48.7752 11.6693 49.0536 11.4511 49.4137 11.2968C49.7731 11.1435 50.1932 11.0664 50.6731 11.0664C51.4114 11.0664 52.0006 11.2464 52.4409 11.6064C52.6744 11.7974 52.8546 12.0245 52.9813 12.2879C53.1558 12.6495 52.8673 13.0691 52.4657 13.0691H52.4505C52.2298 13.0691 52.0272 12.9382 51.9436 12.7341C51.8602 12.53 51.7382 12.3693 51.5777 12.2521C51.3374 12.0772 51.0144 11.9892 50.6084 11.9892C50.2515 11.9892 49.9687 12.0597 49.7594 12.2016C49.5503 12.3433 49.4454 12.5369 49.4454 12.7831C49.4454 12.9857 49.5088 13.1586 49.6352 13.2997C49.7607 13.4416 49.9964 13.5646 50.341 13.6689L51.5588 14.038C52.1683 14.2167 52.6112 14.4595 52.8884 14.767C53.1656 15.0752 53.3034 15.4658 53.3034 15.9397C53.3034 16.5671 53.0865 17.0501 52.6526 17.3883C52.2193 17.7269 51.6114 17.8959 50.8298 17.8959Z" fill="#015E55"/>
<path d="M75.0211 17.9056C74.8924 17.9056 74.59 17.8677 74.3269 17.8251C74.0663 17.7832 73.876 17.5584 73.876 17.2945C73.8799 17.2229 73.8966 17.1111 73.9719 17.0169C74.2947 16.6123 75.2108 17.1285 75.6852 16.7328C75.8068 16.6315 75.9416 16.4353 75.9528 16.0137V11.7679C75.9528 11.4367 76.2213 11.168 76.5526 11.168C76.8842 11.168 77.1527 11.4367 77.1527 11.7679V16.0684C77.1527 16.6836 76.9713 17.1443 76.608 17.4484C76.2454 17.7528 75.7159 17.9056 75.0211 17.9056Z" fill="#015E55"/>
<path d="M96.9499 17.8959C96.1134 17.8959 95.4471 17.7035 94.9525 17.319C94.457 16.935 94.1661 16.3918 94.0801 15.6904H95.2332C95.289 16.0963 95.4702 16.4118 95.7778 16.6364C96.0854 16.8611 96.489 16.9731 96.9868 16.9731C97.3992 16.9731 97.7149 16.898 97.9327 16.7473C98.1517 16.5964 98.2606 16.386 98.2606 16.1146C98.2606 15.8749 98.1932 15.6806 98.0579 15.5331C97.9225 15.3854 97.6948 15.2656 97.3747 15.1737L96.1749 14.8136C95.5654 14.6291 95.1182 14.3857 94.8318 14.0846C94.5456 13.7828 94.4026 13.4046 94.4026 12.9487C94.4026 12.5674 94.501 12.2353 94.6984 11.9522C94.8954 11.6693 95.1738 11.4511 95.5338 11.2968C95.8932 11.1435 96.3134 11.0664 96.7932 11.0664C97.5313 11.0664 98.1208 11.2464 98.5612 11.6064C98.7916 11.7951 98.9703 12.019 99.097 12.2783C99.2754 12.6437 98.9816 13.0691 98.575 13.0691C98.3516 13.0691 98.1472 12.9361 98.062 12.7298C97.9785 12.5278 97.8572 12.3684 97.6979 12.2521C97.4576 12.0772 97.1344 11.9892 96.7286 11.9892C96.3716 11.9892 96.0889 12.0597 95.8795 12.2016C95.6704 12.3433 95.5654 12.5369 95.5654 12.7831C95.5654 12.9857 95.629 13.1586 95.7551 13.2997C95.8807 13.4416 96.1166 13.5646 96.4611 13.6689L97.6791 14.038C98.2886 14.2167 98.7313 14.4595 99.0084 14.767C99.2856 15.0752 99.4235 15.4658 99.4235 15.9397C99.4235 16.5671 99.2066 17.0501 98.7726 17.3883C98.3397 17.7269 97.7316 17.8959 96.9499 17.8959Z" fill="#015E55"/>
<path d="M102.413 17.213V12.3156C102.413 12.2068 102.325 12.1186 102.216 12.1186H100.683C100.42 12.1186 100.208 11.9057 100.208 11.6432C100.208 11.3807 100.42 11.168 100.683 11.168H105.344C105.606 11.168 105.819 11.3807 105.819 11.6432C105.819 11.9057 105.606 12.1186 105.344 12.1186H103.811C103.702 12.1186 103.614 12.2068 103.614 12.3156V17.213C103.614 17.5444 103.345 17.8129 103.014 17.8129C102.682 17.8129 102.413 17.5444 102.413 17.213Z" fill="#015E55"/>
<path d="M109.705 17.9053C109.225 17.9053 108.782 17.8217 108.376 17.6558C107.97 17.4895 107.618 17.2525 107.319 16.9449C107.021 16.6374 106.79 16.2729 106.627 15.8513C106.464 15.43 106.382 14.9668 106.382 14.4623C106.382 13.7916 106.524 13.2023 106.807 12.6948C107.09 12.1875 107.482 11.7906 107.983 11.5044C108.485 11.2183 109.056 11.0752 109.696 11.0752C110.347 11.0752 110.925 11.2183 111.426 11.5044C111.928 11.7906 112.32 12.1888 112.603 12.6998C112.886 13.2101 113.028 13.8011 113.028 14.4714C113.028 14.9765 112.946 15.4377 112.783 15.8559C112.62 16.2748 112.389 16.6374 112.091 16.9449C111.792 17.2525 111.44 17.4895 111.034 17.6558C110.628 17.8217 110.185 17.9053 109.705 17.9053ZM109.696 16.9268C110.114 16.9268 110.482 16.822 110.799 16.6128C111.116 16.4036 111.363 16.1129 111.542 15.7406C111.721 15.3681 111.809 14.9395 111.809 14.4535C111.809 13.9736 111.722 13.5533 111.546 13.1932C111.371 12.8332 111.125 12.5535 110.808 12.3534C110.491 12.1532 110.12 12.0534 109.696 12.0534C109.277 12.0534 108.91 12.1532 108.593 12.3534C108.276 12.5535 108.032 12.8319 107.859 13.1888C107.687 13.5454 107.601 13.9669 107.601 14.4535C107.601 14.9455 107.688 15.3761 107.864 15.7452C108.039 16.1143 108.285 16.4036 108.602 16.6128C108.919 16.822 109.284 16.9268 109.696 16.9268Z" fill="#015E55"/>
<path d="M122.389 11.168C122.137 11.168 121.917 11.337 121.853 11.58L120.717 15.843C120.664 16.0426 120.38 16.0396 120.331 15.8389L119.297 11.5915C119.236 11.343 119.013 11.168 118.758 11.168H118.243C117.988 11.168 117.766 11.3421 117.705 11.5899L116.659 15.8293C116.61 16.0297 116.326 16.0323 116.273 15.8329L115.14 11.58C115.075 11.337 114.856 11.168 114.604 11.168H114.549C114.181 11.168 113.914 11.5213 114.016 11.8759L115.607 17.4116C115.676 17.6493 115.893 17.8129 116.14 17.8129H116.659C116.912 17.8129 117.133 17.6415 117.196 17.3963L118.283 13.1677C118.334 12.9675 118.619 12.9679 118.67 13.1684L119.743 17.3947C119.805 17.6408 120.026 17.8129 120.281 17.8129H120.797C121.044 17.8129 121.261 17.6493 121.33 17.4116L122.922 11.8759C123.024 11.5213 122.757 11.168 122.389 11.168Z" fill="#015E55"/>
<path d="M0 6.13045V0.755995C0 0.346132 0.332285 0.0136719 0.742327 0.0136719H3.01625C3.50812 0.0136719 3.92985 0.0979825 4.28162 0.265895C4.63321 0.434162 4.90404 0.670622 5.09409 0.975628C5.28379 1.28063 5.37908 1.64196 5.37908 2.05891C5.37908 2.46966 5.28237 2.83082 5.08931 3.1422C4.89642 3.45358 4.6256 3.69465 4.27684 3.86592C3.92844 4.03702 3.50812 4.12258 3.01625 4.12258H1.94677C1.68374 4.12258 1.47048 3.9095 1.47048 3.64647C1.47048 3.38344 1.68374 3.17001 1.94677 3.17001H2.9601C3.34605 3.17001 3.64344 3.07082 3.8521 2.8712C4.06039 2.67229 4.1649 2.40129 4.1649 2.05891C4.1649 1.72291 4.06039 1.45811 3.8521 1.26522C3.64344 1.07216 3.34605 0.975628 2.9601 0.975628H1.21383V6.13045C1.21383 6.46556 0.942123 6.73745 0.607005 6.73745C0.271708 6.73745 0 6.46556 0 6.13045Z" fill="#015E55"/>
<path d="M10.73 3.66507C11.0846 3.50318 11.3572 3.27593 11.5469 2.98332C11.7369 2.69071 11.8318 2.35134 11.8318 1.96539C11.8318 1.57324 11.7369 1.23086 11.5469 0.938078C11.3572 0.64547 11.0846 0.418398 10.73 0.256508C10.375 0.0946172 9.95787 0.0136719 9.47858 0.0136719H7.37842C6.97033 0.0136719 6.63965 0.344361 6.63965 0.752453V6.09785C6.63965 6.4002 6.84617 6.68041 7.14462 6.72894C7.5249 6.79094 7.85347 6.49904 7.85347 6.13044V1.43774C7.85347 1.18251 8.06034 0.975627 8.31558 0.975627H9.44122C9.83937 0.975627 10.1414 1.06118 10.3468 1.23246C10.5523 1.40373 10.6552 1.64799 10.6552 1.96539C10.6552 2.2828 10.5509 2.53201 10.3421 2.7125C10.1338 2.89299 9.83353 2.98332 9.44122 2.98332H8.46455C8.20932 2.98332 8.00243 3.1902 8.00243 3.44543C8.00243 3.49396 8.00226 3.91888 8.22878 4.14844L10.2221 6.43368C10.3833 6.61859 10.6138 6.72806 10.858 6.73673C11.3485 6.75427 11.606 6.15489 11.2652 5.8017L9.43837 3.90772H9.47858C9.95787 3.90772 10.375 3.82696 10.73 3.66507Z" fill="#015E55"/>
<path d="M13.1482 6.04879C13.1482 5.94996 13.1786 5.8536 13.2353 5.77266L16.9394 0.489956L17.2663 0.975628H13.7412C13.4755 0.975628 13.2601 0.760246 13.2601 0.494738C13.2601 0.229054 13.4755 0.0136719 13.7412 0.0136719H17.4649C17.8453 0.0136719 18.1537 0.322043 18.1537 0.702504C18.1537 0.801162 18.1233 0.897516 18.0665 0.978462L14.3995 6.2144L14.0818 5.77549H17.7284C17.9941 5.77549 18.2095 5.99087 18.2095 6.25638C18.2095 6.52206 17.9941 6.73745 17.7284 6.73745H13.8369C13.4566 6.73745 13.1482 6.42907 13.1482 6.04879Z" fill="#015E55"/>
<path d="M24.5682 0.0386604C24.3124 -0.0390967 24.0501 0.0703654 23.9215 0.287164L22.6365 2.38678C22.4843 2.63564 22.1207 2.62909 21.9776 2.37509L20.8 0.286101C20.6992 0.117126 20.5172 0.013686 20.3204 0.013686H20.3032C19.8583 0.013686 19.5862 0.502015 19.8202 0.88035L21.6083 3.77047C21.6637 3.86027 21.6931 3.96371 21.6931 4.06928V6.16942C21.6931 6.48311 21.9475 6.73746 22.2612 6.73746H22.3393C22.6528 6.73746 22.9071 6.48311 22.9071 6.1696V4.07547C22.9071 3.96601 22.9388 3.85885 22.9984 3.76692L24.8463 0.912941C25.0622 0.579418 24.9483 0.154145 24.5682 0.0386604Z" fill="#015E55"/>
<path d="M60.5133 0.00818445C60.2194 0.0560077 60.0162 0.331966 60.0162 0.62971V4.87305C60.0162 4.99119 59.859 5.03228 59.8013 4.9292L57.304 0.474904C57.1395 0.181588 56.8295 3.67902e-05 56.4931 3.67902e-05H56.4572C55.9343 3.67902e-05 55.5103 0.423893 55.5103 0.946937V6.20041C55.5103 6.49815 55.7138 6.77411 56.0075 6.82194C56.3819 6.88287 56.7058 6.59557 56.7058 6.23247V1.95672C56.7058 1.83858 56.8627 1.79766 56.9203 1.90057L59.418 6.35522C59.5825 6.64853 59.8926 6.83008 60.2289 6.83008H60.2785C60.7937 6.83008 61.2114 6.41243 61.2114 5.89718V0.59765C61.2114 0.234725 60.8878 -0.0527459 60.5133 0.00818445Z" fill="#015E55"/>
<path d="M62.8621 6.21366V0.616566C62.8621 0.276135 63.1382 0 63.4788 0C63.8192 0 64.0954 0.276135 64.0954 0.616566V6.21366C64.0954 6.55409 63.8192 6.83023 63.4788 6.83023C63.1382 6.83023 62.8621 6.55409 62.8621 6.21366Z" fill="#015E55"/>
<path d="M70.9712 6.83022H71.049C71.4355 6.83022 71.7044 6.44551 71.5712 6.08259L69.5829 0.659607C69.4376 0.263382 69.0605 0 68.6386 0C68.217 0 67.8404 0.262851 67.6949 0.658367L65.6987 6.08206C65.5653 6.44498 65.8337 6.83022 66.2207 6.83022H66.2415C66.4786 6.83022 66.6895 6.67985 66.7672 6.45579L67.1982 5.20901C67.2143 5.16296 67.2573 5.13214 67.306 5.13214H69.9082C69.9568 5.13214 70.0002 5.16314 70.0159 5.20919L70.4454 6.45525C70.5224 6.67967 70.7337 6.83022 70.9712 6.83022ZM67.6184 3.99413L68.502 1.43966C68.5372 1.3371 68.6822 1.3371 68.7177 1.43966L69.5976 3.9943C69.6232 4.06834 69.568 4.14557 69.4898 4.14557H67.7263C67.6478 4.14557 67.5926 4.06834 67.6184 3.99413Z" fill="#015E55"/>
<path d="M30.3556 14.7867C30.7184 14.6213 30.997 14.3887 31.1911 14.0896C31.3855 13.7902 31.4825 13.4432 31.4825 13.0484C31.4825 12.6472 31.3855 12.2973 31.1911 11.9979C30.997 11.6986 30.7184 11.4664 30.3556 11.3006C29.9925 11.1351 29.5661 11.0522 29.0758 11.0522H26.9279C26.5107 11.0522 26.1724 11.3905 26.1724 11.8078V17.2748C26.1724 17.584 26.3836 17.8706 26.6889 17.9202C27.0778 17.9834 27.4138 17.685 27.4138 17.3081V12.5087C27.4138 12.2477 27.6255 12.0362 27.8866 12.0362H29.0377C29.4449 12.0362 29.7538 12.1237 29.9638 12.2988C30.174 12.474 30.2792 12.7238 30.2792 13.0484C30.2792 13.3731 30.1725 13.628 29.9591 13.8124C29.746 13.9971 29.4388 14.0896 29.0377 14.0896H28.0389C27.7779 14.0896 27.5661 14.301 27.5661 14.5621C27.5661 14.6117 27.566 15.0464 27.7976 15.2811L29.8363 17.6182C30.0013 17.8074 30.2368 17.9191 30.4866 17.9282C30.9884 17.9462 31.2516 17.333 30.9032 16.9719L29.0347 15.0348H29.0758C29.5661 15.0348 29.9925 14.9521 30.3556 14.7867Z" fill="#015E55"/>
<path d="M32.8289 17.2244C32.8289 17.1233 32.8601 17.0248 32.918 16.9421L36.7061 11.5395L37.0405 12.0362H33.4354C33.1636 12.0362 32.9434 11.8158 32.9434 11.5441C32.9434 11.2726 33.1636 11.0522 33.4354 11.0522H37.2435C37.6327 11.0522 37.9479 11.3677 37.9479 11.7567C37.9479 11.8576 37.9169 11.9561 37.859 12.0388L34.1088 17.3938L33.7838 16.9449H37.5133C37.7848 16.9449 38.0052 17.1651 38.0052 17.4368C38.0052 17.7085 37.7848 17.9287 37.5133 17.9287H33.5331C33.1441 17.9287 32.8289 17.6134 32.8289 17.2244Z" fill="#015E55"/>
<path d="M44.5082 11.0778C44.2468 10.9983 43.9781 11.1102 43.8468 11.332L42.5324 13.4794C42.3767 13.7338 42.005 13.727 41.8586 13.4672L40.6543 11.3309C40.5513 11.1581 40.365 11.0523 40.1637 11.0523H40.1462C39.6912 11.0523 39.4129 11.5518 39.6522 11.9386L41.4808 14.8943C41.5377 14.9862 41.5679 15.0919 41.5679 15.2V17.3479C41.5679 17.6687 41.8279 17.9287 42.1487 17.9287H42.2287C42.5492 17.9287 42.8093 17.6687 42.8093 17.3479V15.2063C42.8093 15.0944 42.8417 14.9848 42.9024 14.8907L44.7928 11.9719C45.0135 11.631 44.8971 11.1959 44.5082 11.0778Z" fill="#015E55"/>
<path d="M54.5962 17.313V11.8618C54.5962 11.4461 54.9332 11.1089 55.3491 11.1089H57.6554C58.1542 11.1089 58.5821 11.1943 58.9388 11.3647C59.2956 11.5352 59.5701 11.7752 59.7628 12.0847C59.9552 12.3939 60.052 12.7604 60.052 13.1834C60.052 13.5999 59.9536 13.9664 59.7581 14.2821C59.5622 14.5979 59.2878 14.8425 58.9337 15.0161C58.5803 15.1898 58.1542 15.2766 57.6554 15.2766H56.5707C56.3039 15.2766 56.0875 15.0603 56.0875 14.7934C56.0875 14.5266 56.3039 14.3104 56.5707 14.3104H57.5984C57.9901 14.3104 58.2916 14.2094 58.5032 14.0073C58.7144 13.8054 58.8204 13.5307 58.8204 13.1834C58.8204 12.8424 58.7144 12.5741 58.5032 12.3783C58.2916 12.1824 57.9901 12.0847 57.5984 12.0847H56.3104C56.0435 12.0847 55.8271 12.3009 55.8271 12.5677V17.313C55.8271 17.6529 55.5516 17.9285 55.2117 17.9285C54.8717 17.9285 54.5962 17.6529 54.5962 17.313Z" fill="#015E55"/>
<path d="M62.4344 16.4575V15.3684C62.4344 15.1065 62.6467 14.8941 62.9086 14.8941H65.2748C65.5368 14.8941 65.749 14.6819 65.749 14.4199C65.749 14.1581 65.5368 13.9458 65.2748 13.9458H62.9086C62.6467 13.9458 62.4344 13.7336 62.4344 13.4716V12.5796C62.4344 12.3178 62.6467 12.1055 62.9086 12.1055H65.5004C65.7624 12.1055 65.9746 11.8933 65.9746 11.6313V11.6123C65.9746 11.3506 65.7624 11.1382 65.5004 11.1382H62.4344H61.796H61.688C61.4262 11.1382 61.2139 11.3506 61.2139 11.6123V17.4248C61.2139 17.6866 61.4262 17.899 61.688 17.899H61.796H62.4344H65.6035C65.8654 17.899 66.0776 17.6866 66.0776 17.4248V17.4059C66.0776 17.1441 65.8654 16.9317 65.6035 16.9317H62.9086C62.6467 16.9317 62.4344 16.7195 62.4344 16.4575Z" fill="#015E55"/>
<path d="M70.3201 17.9518C69.8462 17.9518 69.411 17.8669 69.0141 17.698C68.6171 17.5283 68.2714 17.2901 67.9759 16.9824C67.6805 16.6749 67.4528 16.3117 67.2928 15.8933C67.133 15.4749 67.0527 15.0165 67.0527 14.5179C67.0527 14.02 67.133 13.5641 67.2928 13.1523C67.4528 12.7398 67.6789 12.3818 67.9714 12.0768C68.2637 11.7723 68.6078 11.5368 69.0051 11.371C69.4019 11.2045 69.8401 11.1216 70.3201 11.1216C70.8492 11.1216 71.3261 11.2266 71.7505 11.4356C72.1752 11.6448 72.5241 11.9381 72.7982 12.317C72.9153 12.4787 73.0132 12.6528 73.0912 12.8388C73.2531 13.2225 72.9822 13.6502 72.5661 13.6502C72.3226 13.6502 72.1055 13.494 72.0293 13.2628C71.9255 12.9488 71.7558 12.6948 71.5198 12.5015C71.1937 12.2341 70.7968 12.1 70.329 12.1C69.9174 12.1 69.5573 12.1985 69.2496 12.3953C68.9416 12.5923 68.702 12.8707 68.5297 13.2306C68.3576 13.5907 68.2714 14.0168 68.2714 14.5089C68.2714 15.0133 68.3576 15.4491 68.5297 15.815C68.702 16.1807 68.9447 16.4658 69.2587 16.6684C69.5728 16.8717 69.9321 16.9734 70.3388 16.9734C70.7941 16.9734 71.1847 16.8393 71.5107 16.5718C71.7485 16.3765 71.9225 16.1218 72.0328 15.8072C72.1118 15.5817 72.3268 15.4317 72.5657 15.4317H72.5673C72.9857 15.4317 73.2581 15.8644 73.0905 16.2477C73.0107 16.4296 72.9133 16.6007 72.7982 16.761C72.5241 17.1423 72.1752 17.4364 71.7505 17.6424C71.3261 17.8489 70.8492 17.9518 70.3201 17.9518Z" fill="#015E55"/>
<path d="M1.2195 16.4792V11.657C1.2195 11.3901 1.00323 11.1738 0.736305 11.1738H0.483195C0.216269 11.1738 0 11.3901 0 11.657V17.4455C0 17.7125 0.216269 17.9287 0.483195 17.9287H0.581676H1.2195H4.05774C4.32449 17.9287 4.54093 17.7125 4.54093 17.4455C4.54093 17.1788 4.32449 16.9624 4.05774 16.9624H1.70269C1.43577 16.9624 1.2195 16.7461 1.2195 16.4792Z" fill="#015E55"/>
<path d="M7.21462 16.4883V15.4C7.21462 15.1382 7.42682 14.9262 7.68844 14.9262H10.0527C10.3143 14.9262 10.5265 14.714 10.5265 14.4524C10.5265 14.1908 10.3143 13.9786 10.0527 13.9786H7.68844C7.42682 13.9786 7.21462 13.7666 7.21462 13.5048V12.6135C7.21462 12.3519 7.42682 12.1398 7.68844 12.1398H10.2782C10.5398 12.1398 10.752 11.9277 10.752 11.6661V11.6472C10.752 11.3855 10.5398 11.1733 10.2782 11.1733H7.21462H6.57677H6.46893C6.20714 11.1733 5.99512 11.3855 5.99512 11.6472V17.4546C5.99512 17.7164 6.20714 17.9285 6.46893 17.9285H6.57677H7.21462H10.3811C10.6429 17.9285 10.8549 17.7164 10.8549 17.4546V17.4359C10.8549 17.1741 10.6429 16.9621 10.3811 16.9621H7.68844C7.42682 16.9621 7.21462 16.7499 7.21462 16.4883Z" fill="#015E55"/>
<path d="M24.339 17.9685H24.4177C24.8082 17.9685 25.0796 17.5799 24.9451 17.2132L22.9365 11.735C22.7899 11.3349 22.4089 11.0688 21.9827 11.0688C21.5569 11.0688 21.1765 11.3344 21.0293 11.734L19.0131 17.2125C18.8781 17.5794 19.1494 17.9685 19.5404 17.9685H19.5613C19.8007 17.9685 20.014 17.8165 20.0922 17.5903L20.5278 16.3308C20.5439 16.2842 20.5878 16.2531 20.6367 16.2531H23.2651C23.3144 16.2531 23.3581 16.2844 23.3742 16.3308L23.8078 17.5896C23.886 17.8164 24.0992 17.9685 24.339 17.9685ZM20.9522 15.1035L21.8446 12.523C21.8806 12.4194 22.0268 12.4196 22.0626 12.5232L22.9516 15.1037C22.9773 15.1785 22.9217 15.2566 22.8425 15.2566H21.0612C20.982 15.2566 20.9264 15.1785 20.9522 15.1035Z" fill="#015E55"/>
<path d="M17.3411 16.9881L14.7739 14.4276C14.728 14.3819 14.7283 14.3075 14.7748 14.2624L17.1132 11.9833C17.4704 11.6351 17.2239 11.0288 16.7249 11.0288H16.7189C16.5246 11.0288 16.3386 11.1067 16.2022 11.2451L13.6911 13.793C13.6183 13.867 13.4924 13.8153 13.4924 13.7115V11.6517C13.4924 11.3078 13.2136 11.0288 12.8696 11.0288C12.5256 11.0288 12.2468 11.3078 12.2468 11.6517V17.3057C12.2468 17.6497 12.5256 17.9285 12.8696 17.9285C13.2136 17.9285 13.4924 17.6497 13.4924 17.3057V15.0121C13.4924 14.9076 13.6197 14.8564 13.6922 14.9317L16.3027 17.6514C16.4725 17.8284 16.707 17.9285 16.9523 17.9285C17.4431 17.9285 17.6886 17.3347 17.3411 16.9881Z" fill="#015E55"/>
<path d="M83.5507 17.8937H83.6285C84.015 17.8937 84.2836 17.509 84.1507 17.146L82.1623 11.7231C82.0169 11.3268 81.6399 11.0635 81.2181 11.0635C80.7965 11.0635 80.4198 11.3263 80.2741 11.7218L78.2782 17.1455C78.1445 17.5084 78.4132 17.8937 78.8001 17.8937H78.8208C79.0579 17.8937 79.269 17.7433 79.3465 17.5193L79.7776 16.2725C79.7935 16.2264 79.8369 16.1956 79.8855 16.1956H82.4875C82.5362 16.1956 82.5795 16.2266 82.5953 16.2727L83.0247 17.5187C83.102 17.7431 83.3132 17.8937 83.5507 17.8937ZM80.1978 15.0576L81.0812 12.5031C81.1167 12.4006 81.2616 12.4006 81.2969 12.5031L82.1769 15.0578C82.2025 15.1318 82.1474 15.209 82.069 15.209H80.3056C80.2271 15.209 80.1721 15.1318 80.1978 15.0576Z" fill="#015E55"/>
<path d="M91.4927 17.2151V11.618C91.4927 11.2776 91.7688 11.0015 92.1093 11.0015C92.4498 11.0015 92.7258 11.2776 92.7258 11.618V17.2151C92.7258 17.5555 92.4498 17.8317 92.1093 17.8317C91.7688 17.8317 91.4927 17.5555 91.4927 17.2151Z" fill="#015E55"/>
<path d="M86.8854 16.3903V11.5682C86.8854 11.3012 86.6691 11.085 86.4021 11.085H86.149C85.8823 11.085 85.666 11.3012 85.666 11.5682V17.3567C85.666 17.6236 85.8823 17.8399 86.149 17.8399H86.2475H86.8854H89.7237C89.9904 17.8399 90.2069 17.6236 90.2069 17.3567C90.2069 17.09 89.9904 16.8735 89.7237 16.8735H87.3686C87.1016 16.8735 86.8854 16.6572 86.8854 16.3903Z" fill="#015E55"/>
<path d="M109.717 9.20277C109.393 9.52673 109.256 9.9674 109.308 10.3895C109.314 10.4384 109.353 10.4772 109.401 10.4832C109.824 10.5347 110.265 10.3987 110.589 10.0747C110.913 9.7506 111.049 9.3101 110.997 8.88783C110.991 8.83895 110.952 8.80015 110.904 8.79433C110.481 8.74277 110.041 8.87862 109.717 9.20277Z" fill="#015E55"/>
</g>
</svg>
