<svg preserveAspectRatio="none" width="100%" height="100%" overflow="visible" style="display: block;" viewBox="0 0 16.1493 16.1493" fill="none" xmlns="http://www.w3.org/2000/svg">
<g id="Group 114">
<mask id="mask0_146_234" style="mask-type:alpha" maskUnits="userSpaceOnUse" x="0" y="0" width="17" height="17">
<rect id="Rectangle 127" x="0.125" y="0.125" width="15.8993" height="15.8993" fill="var(--fill-0, black)" stroke="var(--stroke-0, #015E55)" stroke-width="0.25"/>
</mask>
<g mask="url(#mask0_146_234)">
<path id="Path 75" d="M8.07465 16.0243C3.69135 16.0243 0.125 12.458 0.125 8.07467C0.125 3.69136 3.69135 0.125 8.07465 0.125C12.458 0.125 16.0243 3.69136 16.0243 8.07467C16.0243 12.458 12.458 16.0243 8.07465 16.0243ZM8.07465 1.2133C4.29137 1.2133 1.2133 4.29101 1.2133 8.07467C1.2133 11.8583 4.29137 14.936 8.07465 14.936C11.8583 14.936 14.936 11.8583 14.936 8.07467C14.936 4.29101 11.8583 1.2133 8.07465 1.2133Z" fill="var(--fill-0, #015E55)" stroke="var(--stroke-0, #015E55)" stroke-width="0.25"/>
<path id="Path 76" d="M13.4239 9.04129H7.7336C7.43323 9.04129 7.18945 8.79751 7.18945 8.49714V3.09591C7.18945 2.79554 7.43323 2.55176 7.7336 2.55176C8.03434 2.55176 8.27775 2.79554 8.27775 3.09591V7.95299H13.4239C13.7243 7.95299 13.9681 8.19677 13.9681 8.49714C13.9681 8.79751 13.7243 9.04129 13.4239 9.04129Z" fill="var(--fill-0, #015E55)" stroke="var(--stroke-0, #015E55)" stroke-width="0.25"/>
</g>
</g>
</svg>
