<svg preserveAspectRatio="none" width="100%" height="100%" overflow="visible" style="display: block;" viewBox="0 0 38.1282 14.7795" fill="none" xmlns="http://www.w3.org/2000/svg">
<g id="Group 78">
<mask id="mask0_146_225" style="mask-type:alpha" maskUnits="userSpaceOnUse" x="0" y="0" width="39" height="15">
<rect id="Rectangle 105" width="38.1282" height="14.7795" fill="var(--fill-0, black)"/>
</mask>
<g mask="url(#mask0_146_225)">
<path id="Path 61" d="M10.7451 3.46057C10.7451 2.99159 11.1502 2.61133 11.6502 2.61133C12.1502 2.61133 12.5553 2.99159 12.5553 3.46057C12.5553 3.92954 12.1502 4.30981 11.6502 4.30981C11.1502 4.30981 10.7451 3.92954 10.7451 3.46057Z" fill="var(--fill-0, #015E55)"/>
<path id="Path 62" d="M11.6495 4.3827C11.1105 4.3827 10.6719 3.96956 10.6719 3.46088C10.6719 2.95283 11.1105 2.53906 11.6495 2.53906C12.1886 2.53906 12.6272 2.95283 12.6272 3.46088C12.6272 3.96956 12.1886 4.3827 11.6495 4.3827ZM11.6495 2.68484C11.1905 2.68484 10.8177 3.03285 10.8177 3.46088C10.8177 3.88891 11.1905 4.23692 11.6495 4.23692C12.1086 4.23692 12.4814 3.88891 12.4814 3.46088C12.4814 3.03285 12.1086 2.68484 11.6495 2.68484Z" fill="var(--fill-0, #015E55)"/>
<path id="Path 63" d="M7.52633 11.3182C5.25218 11.3182 3.40234 9.55587 3.40234 7.38903C3.40234 5.22282 5.25218 3.46045 7.52633 3.46045C9.80047 3.46045 11.6503 5.22282 11.6503 7.38903C11.6503 9.55587 9.80047 11.3182 7.52633 11.3182ZM7.52633 4.96849C6.08405 4.96849 4.91038 6.05469 4.91038 7.38903C4.91038 8.724 6.08405 9.80958 7.52633 9.80958C8.96861 9.80958 10.1423 8.724 10.1423 7.38903C10.1423 6.05469 8.96861 4.96849 7.52633 4.96849Z" fill="var(--fill-0, #015E55)"/>
<path id="Path 64" d="M0.0947266 3.5128C0.0947266 3.5128 0.104032 10.8396 0.104032 10.8731C0.104032 12.0697 0.352165 12.8594 1.11332 13.5833C1.81926 14.2545 2.72246 14.6553 3.72058 14.6726C5.64238 14.7068 11.4313 14.6602 11.471 14.6602C12.3414 14.6602 12.9152 14.3867 13.5237 13.9903C14.1323 13.5939 14.6701 12.9828 14.9108 12.3197C15.1261 11.7273 15.1794 11.1777 15.1763 10.5505C15.1682 8.86816 15.1 3.78699 15.1 3.76279C15.1031 2.68837 14.5758 1.63132 13.7129 0.937167C12.5858 0.0302359 11.7539 0.0947508 10.6243 0.0947508C9.57406 0.0947508 3.73113 0.105297 3.73113 0.105297L3.83782 1.30006C3.83782 1.30006 10.8792 1.27029 10.9326 1.27215C11.4531 1.28952 12.3283 1.58232 12.9884 2.21009C13.44 2.63937 13.8265 3.55064 13.8265 4.23611C13.8265 6.20195 13.8686 8.35948 13.8686 10.1318C13.8686 12.7049 12.5678 13.5014 10.4363 13.5014C8.91588 13.5014 4.30556 13.4903 4.29377 13.4897C3.38994 13.4574 2.54753 13.0039 2.17223 12.6162C1.73055 12.1609 1.5004 11.5852 1.49544 10.7596C1.4849 9.07101 1.44954 3.9886 1.44954 3.97123C1.44954 3.05685 1.63378 2.74793 2.0798 2.2653C2.52582 1.78268 3.18399 1.3013 4.17963 1.3013C4.17963 1.3013 3.74974 0.0842051 3.76525 0.102815C2.63624 0.102815 1.85648 0.561864 1.17969 1.17351C0.502286 1.78517 0.0947266 2.68403 0.0947266 3.5128Z" fill="var(--fill-0, #015E55)"/>
<path id="Path 65" d="M5.90683 14.7793C5.01789 14.7793 4.23254 14.7762 3.71891 14.7669C2.72017 14.7489 1.79649 14.3637 1.04837 13.6515C0.300862 12.9412 0.00992535 12.1621 0.00992535 10.873C0.00992535 10.8395 0 3.51275 0 3.51275C0 2.64862 0.428031 1.72494 1.11598 1.10336C1.68049 0.593448 2.49126 0.00847159 3.76481 0.00847159H4.15562L4.15252 0.0103326C5.51229 0.00785125 9.74545 0.000407224 10.6238 0.000407224L10.8341 -0.000213112C11.8713 -0.00269445 12.6896 -0.0064165 13.7714 0.863294C14.6653 1.58226 15.197 2.66599 15.1939 3.76274C15.1939 3.76957 15.1957 3.88309 15.1982 4.07725C15.241 7.42086 15.2658 9.59886 15.2702 10.5498C15.2739 11.2887 15.1951 11.811 14.9991 12.3519C14.764 12.9995 14.2317 13.6416 13.5748 14.069C12.9253 14.4921 12.3471 14.7545 11.4712 14.7545L11.3757 14.7551C10.1735 14.7638 7.80443 14.7793 5.90683 14.7793ZM0.188582 3.51275C0.188582 3.52081 0.197887 10.8395 0.197887 10.873C0.197887 12.1038 0.472695 12.8445 1.17802 13.515C1.89202 14.1937 2.77165 14.5615 3.72201 14.5783C5.32929 14.6075 9.60898 14.5795 11.3745 14.5665L11.4712 14.5659C12.3006 14.5659 12.8515 14.3153 13.4718 13.9114C14.0952 13.5051 14.6002 12.8978 14.8217 12.2874C15.0102 11.7688 15.0853 11.2657 15.0816 10.5505C15.0772 9.6001 15.053 7.42272 15.0096 4.07911C15.0071 3.88061 15.0053 3.76585 15.0053 3.76212C15.0084 2.72244 14.5028 1.69392 13.6536 1.01031C12.6232 0.182166 11.8713 0.185267 10.8348 0.188369L10.6238 0.188989C9.67846 0.188989 4.84791 0.197674 3.89446 0.198915C3.96704 0.41231 4.12709 0.869497 4.24557 1.20386C5.83735 1.19703 10.8887 1.17656 10.9359 1.1778C11.4867 1.19641 12.3844 1.50596 13.0531 2.14119C13.5314 2.59651 13.9203 3.5357 13.9203 4.23606C13.9203 5.2441 13.9315 6.30612 13.9426 7.33401C13.9526 8.32841 13.9625 9.26822 13.9625 10.1317C13.9625 12.5275 12.875 13.5957 10.4359 13.5957C8.98492 13.5957 4.30698 13.5845 4.28899 13.5839C3.39757 13.5516 2.51484 13.1062 2.10417 12.6819C1.62962 12.1912 1.40568 11.5808 1.40072 10.7601C1.39265 9.4537 1.3697 6.1163 1.35977 4.66409C1.35667 4.23854 1.35481 3.9749 1.35481 3.97118C1.35481 3.01462 1.56448 2.68274 2.00988 2.20074C2.51732 1.65236 3.08554 1.33537 3.73752 1.2386L3.64447 0.198915C2.50429 0.234274 1.76361 0.772105 1.24253 1.24294C0.592419 1.8304 0.188582 2.70011 0.188582 3.51275ZM4.17981 1.39492C3.39385 1.39492 2.72947 1.70075 2.14884 2.32915C1.71833 2.79378 1.54339 3.07293 1.54339 3.97118C1.54339 3.97862 1.54525 4.24102 1.54835 4.66285C1.55828 6.11506 1.58123 9.45246 1.5893 10.7589C1.59426 11.5281 1.80083 12.0976 2.24003 12.551C2.62401 12.9474 3.45402 13.3649 4.29706 13.3953C4.35661 13.3959 8.98306 13.4071 10.4359 13.4071C12.7758 13.4071 13.7739 12.4276 13.7739 10.1317C13.7739 9.26884 13.7646 8.32965 13.7541 7.33588C13.7429 6.30798 13.7323 5.24472 13.7323 4.23606C13.7323 3.59153 13.3614 2.69514 12.9228 2.27828C12.2901 1.67655 11.4458 1.38376 10.9291 1.36577C10.8497 1.36142 5.88759 1.38562 4.31194 1.39182L4.31319 1.39492H4.17981ZM3.88205 0.740468L3.92362 1.2051C3.95897 1.2051 3.9993 1.20448 4.04582 1.20448C3.98131 1.02272 3.92734 0.869497 3.88205 0.740468Z" fill="var(--fill-0, #015E55)"/>
<path id="Path 66" d="M35.2645 0.0942383H26.3944C24.8119 0.0942383 23.5303 1.37647 23.5303 2.95833V11.8217C23.5303 13.4035 24.8119 14.6858 26.3944 14.6858H31.3173L31.3285 9.0891L29.4228 9.06429L29.4061 6.84969C29.4061 6.84969 31.2962 6.84969 31.2962 6.85714C31.3347 6.16422 31.2448 5.41486 31.3397 4.72815C31.4879 3.65372 31.8273 3.29269 32.1864 2.93351C32.955 2.16554 34.7521 2.36529 35.8334 2.36529C35.8334 2.36529 35.8427 4.33547 35.8427 4.3851C35.1919 4.3851 34.7825 4.36959 34.2614 4.45892C34.0877 4.48932 33.6448 4.51413 33.5902 5.32987C33.5586 5.81931 33.5927 6.31 33.6045 6.80069L35.749 6.8193L35.4612 9.04072L33.5884 9.05623L33.602 14.682L31.3173 14.6858H35.2645C36.8464 14.6858 38.1292 13.4035 38.1292 11.8217V2.95833C38.1292 1.37647 36.8464 0.0942383 35.2645 0.0942383Z" fill="var(--fill-0, #015E55)"/>
</g>
</g>
</svg>
