<svg preserveAspectRatio="none" width="100%" height="100%" overflow="visible" style="display: block;" viewBox="0 0 122.944 31.8588" fill="none" xmlns="http://www.w3.org/2000/svg">
<g id="Group 5">
<mask id="mask0_146_177" style="mask-type:alpha" maskUnits="userSpaceOnUse" x="0" y="0" width="123" height="32">
<rect id="Rectangle 11" width="122.943" height="31.8588" fill="var(--fill-0, black)"/>
</mask>
<g mask="url(#mask0_146_177)">
<path id="Path 4" d="M0 30.8638V23.2276C0 22.6451 0.472213 22.1729 1.05477 22.1729H4.28552C4.98445 22.1729 5.58366 22.2924 6.08333 22.531C6.58317 22.7701 6.96789 23.1063 7.23782 23.5396C7.50741 23.973 7.64273 24.4863 7.64273 25.0788C7.64273 25.6624 7.50546 26.1756 7.23109 26.6178C6.95691 27.0602 6.57219 27.4029 6.0766 27.6462C5.58154 27.8895 4.98445 28.011 4.28552 28.011H2.76615C2.39242 28.011 2.08936 27.708 2.08936 27.3342C2.08936 26.9605 2.39242 26.6575 2.76615 26.6575H4.20581C4.75419 26.6575 5.17681 26.5163 5.47331 26.2329C5.76929 25.9502 5.91754 25.5653 5.91754 25.0788C5.91754 24.6011 5.76929 24.2252 5.47331 23.951C5.17681 23.6766 4.75419 23.5396 4.20581 23.5396H2.40145C2.02772 23.5396 1.72466 23.8426 1.72466 24.2164V30.8638C1.72466 31.3401 1.3387 31.7262 0.862417 31.7262C0.386131 31.7262 0 31.3401 0 30.8638Z" fill="var(--fill-0, #015E55)"/>
<path id="Path 5" d="M15.2454 27.361C15.7493 27.1311 16.1365 26.8082 16.4061 26.3923C16.6762 25.9766 16.811 25.4945 16.811 24.9461C16.811 24.3887 16.6762 23.9025 16.4061 23.4864C16.1365 23.0707 15.7493 22.748 15.2454 22.5179C14.7409 22.288 14.1484 22.1729 13.4672 22.1729H10.4834C9.90369 22.1729 9.43359 22.6428 9.43359 23.2227V30.8177C9.43359 31.2472 9.7271 31.6454 10.1511 31.7143C10.6915 31.8021 11.1582 31.3875 11.1582 30.8638V24.1963C11.1582 23.8335 11.4523 23.5396 11.815 23.5396H13.4145C13.98 23.5396 14.4092 23.6613 14.7011 23.9046C14.993 24.148 15.1391 24.495 15.1391 24.9461C15.1391 25.3971 14.9909 25.7511 14.6944 26.0074C14.3984 26.2641 13.9717 26.3923 13.4145 26.3923H12.0267C11.6639 26.3923 11.3699 26.6863 11.3699 27.0491C11.3699 27.1178 11.3697 27.7218 11.6916 28.0477L14.5239 31.2947C14.753 31.5574 15.0803 31.7129 15.4273 31.7253C16.1243 31.7502 16.4901 30.8987 16.006 30.3967L13.4102 27.7056H13.4672C14.1484 27.7056 14.7409 27.5909 15.2454 27.361Z" fill="var(--fill-0, #015E55)"/>
<path id="Path 6" d="M18.6816 30.7477C18.6816 30.6073 18.7249 30.4704 18.8055 30.3554L24.0684 22.8496L24.5328 23.5397H19.5244C19.1468 23.5397 18.8409 23.2337 18.8409 22.8562C18.8409 22.4789 19.1468 22.1729 19.5244 22.1729H24.8149C25.3555 22.1729 25.7937 22.6111 25.7937 23.1515C25.7937 23.2917 25.7505 23.4287 25.6699 23.5436L20.4598 30.9829L20.0083 30.3595H25.1897C25.567 30.3595 25.8731 30.6654 25.8731 31.0428C25.8731 31.4203 25.567 31.7262 25.1897 31.7262H19.6601C19.1197 31.7262 18.6816 31.2882 18.6816 30.7477Z" fill="var(--fill-0, #015E55)"/>
<path id="Path 7" d="M34.9072 22.2083C34.5439 22.098 34.171 22.2534 33.9882 22.5613L32.1626 25.5448C31.9462 25.8981 31.4297 25.8889 31.2262 25.5279L29.5534 22.5599C29.4101 22.3198 29.1513 22.1729 28.8718 22.1729H28.8472C28.215 22.1729 27.8285 22.8666 28.161 23.4042L30.7016 27.5105C30.7805 27.6382 30.8224 27.7851 30.8224 27.935V30.9192C30.8224 31.3648 31.1835 31.726 31.6292 31.726H31.7402C32.1859 31.726 32.547 31.3648 32.547 30.9192V27.9441C32.547 27.7883 32.592 27.6361 32.6766 27.5055L35.3024 23.4505C35.6091 22.9767 35.4473 22.3725 34.9072 22.2083Z" fill="var(--fill-0, #015E55)"/>
<path id="Path 8" d="M50.0752 30.8638V23.0353C50.0752 22.559 50.4613 22.1729 50.9376 22.1729C51.4139 22.1729 51.8 22.559 51.8 23.0353V30.8638C51.8 31.3401 51.4139 31.7262 50.9376 31.7262C50.4613 31.7262 50.0752 31.3401 50.0752 30.8638Z" fill="var(--fill-0, #015E55)"/>
<path id="Path 9" d="M55.8331 29.6893V28.15C55.8331 27.7801 56.1331 27.4802 56.5031 27.4802H59.8467C60.217 27.4802 60.5169 27.1801 60.5169 26.8101C60.5169 26.4401 60.217 26.14 59.8467 26.14H56.5031C56.1331 26.14 55.8331 25.8401 55.8331 25.47V24.2096C55.8331 23.8396 56.1331 23.5396 56.5031 23.5396H60.1656C60.5359 23.5396 60.8356 23.2395 60.8356 22.8695V22.8427C60.8356 22.4727 60.5359 22.1729 60.1656 22.1729H55.8331H54.9311H54.7785C54.4083 22.1729 54.1084 22.4727 54.1084 22.8427V31.056C54.1084 31.4261 54.4083 31.726 54.7785 31.726H54.9311H55.8331H60.3112C60.6814 31.726 60.9814 31.4261 60.9814 31.056V31.0294C60.9814 30.6592 60.6814 30.3593 60.3112 30.3593H56.5031C56.1331 30.3593 55.8331 30.0593 55.8331 29.6893Z" fill="var(--fill-0, #015E55)"/>
<path id="Path 10" d="M64.8554 29.676V22.8562C64.8554 22.4788 64.5496 22.1729 64.1721 22.1729H63.8141C63.4366 22.1729 63.1309 22.4788 63.1309 22.8562V31.0427C63.1309 31.4201 63.4366 31.7262 63.8141 31.7262H63.9533H64.8554H68.8692C69.2468 31.7262 69.5525 31.4201 69.5525 31.0427C69.5525 30.6654 69.2468 30.3593 68.8692 30.3593H65.5388C65.1613 30.3593 64.8554 30.0534 64.8554 29.676Z" fill="var(--fill-0, #015E55)"/>
<path id="Path 11" d="M73.3339 29.6893V28.15C73.3339 27.7801 73.634 27.4802 74.004 27.4802H77.3476C77.7178 27.4802 78.0177 27.1801 78.0177 26.8101C78.0177 26.4401 77.7178 26.14 77.3476 26.14H74.004C73.634 26.14 73.3339 25.8401 73.3339 25.47V24.2096C73.3339 23.8396 73.634 23.5396 74.004 23.5396H77.6665C78.0366 23.5396 78.3365 23.2395 78.3365 22.8695V22.8427C78.3365 22.4727 78.0366 22.1729 77.6665 22.1729H73.3339H72.4319H72.2794C71.9091 22.1729 71.6094 22.4727 71.6094 22.8427V31.056C71.6094 31.4261 71.9091 31.726 72.2794 31.726H72.4319H73.3339H77.8122C78.1823 31.726 78.4822 31.4261 78.4822 31.056V31.0294C78.4822 30.6592 78.1823 30.3593 77.8122 30.3593H74.004C73.634 30.3593 73.3339 30.0593 73.3339 29.6893Z" fill="var(--fill-0, #015E55)"/>
<path id="Path 12" d="M87.6295 22.1844C87.2185 22.2514 86.9339 22.6373 86.9339 23.0537V28.9889C86.9339 29.1542 86.7142 29.2116 86.6334 29.0674L83.1406 22.8372C82.9107 22.427 82.477 22.1729 82.0067 22.1729H81.9562C81.2249 22.1729 80.6318 22.7659 80.6318 23.4974V30.8456C80.6318 31.2617 80.9162 31.6479 81.3273 31.7146C81.8509 31.8 82.3037 31.398 82.3037 30.8903V24.9098C82.3037 24.7445 82.5232 24.6871 82.6039 24.8313L86.0976 31.062C86.3277 31.4722 86.7613 31.7262 87.2318 31.7262H87.3009C88.0218 31.7262 88.6057 31.142 88.6057 30.4213V23.0089C88.6057 22.5011 88.1533 22.0992 87.6295 22.1844Z" fill="var(--fill-0, #015E55)"/>
<path id="Path 13" d="M90.9141 30.8638V23.0353C90.9141 22.559 91.3001 22.1729 91.7766 22.1729C92.2527 22.1729 92.6388 22.559 92.6388 23.0353V30.8638C92.6388 31.3401 92.2527 31.7262 91.7766 31.7262C91.3001 31.7262 90.9141 31.3401 90.9141 30.8638Z" fill="var(--fill-0, #015E55)"/>
<path id="Path 14" d="M102.256 31.7262H102.365C102.905 31.7262 103.281 31.188 103.095 30.6805L100.314 23.0953C100.111 22.5413 99.5837 22.1729 98.9933 22.1729C98.4042 22.1729 97.8769 22.5404 97.6733 23.0937L94.8815 30.6796C94.6947 31.1873 95.0704 31.7262 95.6116 31.7262H95.6406C95.9724 31.7262 96.2672 31.5159 96.3758 31.2025L96.9792 29.4587C97.0013 29.3941 97.0618 29.3511 97.1297 29.3511H100.769C100.837 29.3511 100.898 29.3943 100.92 29.4588L101.521 31.2016C101.629 31.5154 101.924 31.7262 102.256 31.7262ZM97.5665 27.7593L98.8021 24.1862C98.8518 24.0429 99.0546 24.0431 99.1041 24.1864L100.335 27.7595C100.37 27.8631 100.293 27.9712 100.184 27.9712H97.7174C97.6077 27.9712 97.5307 27.8629 97.5665 27.7593Z" fill="var(--fill-0, #015E55)"/>
<path id="Path 15" d="M112.391 30.4241L108.836 26.8789C108.773 26.8156 108.773 26.7125 108.837 26.65L112.075 23.4943C112.569 23.0121 112.228 22.1729 111.537 22.1729H111.529C111.26 22.1729 111.002 22.2807 110.813 22.4722L107.337 26.0001C107.235 26.1025 107.062 26.0311 107.062 25.8873V23.0353C107.062 22.559 106.675 22.1729 106.199 22.1729C105.723 22.1729 105.337 22.559 105.337 23.0353V30.8638C105.337 31.3401 105.723 31.7262 106.199 31.7262C106.675 31.7262 107.062 31.3401 107.062 30.8638V27.6881C107.062 27.5434 107.238 27.4725 107.338 27.5769L110.952 31.3427C111.188 31.5876 111.513 31.7262 111.852 31.7262C112.532 31.7262 112.872 30.904 112.391 30.4241Z" fill="var(--fill-0, #015E55)"/>
<path id="Path 16" d="M118.99 31.8588C117.698 31.8588 116.721 31.4918 116.057 30.7575C115.394 30.0235 115.062 28.9709 115.062 27.5997V23.0353C115.062 22.559 115.449 22.1729 115.925 22.1729C116.401 22.1729 116.787 22.559 116.787 23.0353V27.8519C116.787 28.7274 116.982 29.3798 117.371 29.8088C117.76 30.2382 118.304 30.4525 119.003 30.4525C119.701 30.4525 120.246 30.2382 120.635 29.8088C121.024 29.3798 121.219 28.7321 121.219 27.8651V23.0353C121.219 22.559 121.605 22.1729 122.081 22.1729C122.558 22.1729 122.943 22.559 122.943 23.0353V27.6128C122.943 28.9753 122.61 30.0235 121.942 30.7575C121.274 31.4918 120.29 31.8588 118.99 31.8588Z" fill="var(--fill-0, #015E55)"/>
<path id="Path 17" d="M40.8398 30.7477C40.8398 30.6073 40.8831 30.4704 40.9637 30.3554L46.2265 22.8496L46.691 23.5397H41.6824C41.305 23.5397 40.9991 23.2337 40.9991 22.8562C40.9991 22.4789 41.305 22.1729 41.6824 22.1729H46.9732C47.5135 22.1729 47.9518 22.6111 47.9518 23.1515C47.9518 23.2917 47.9085 23.4287 47.8281 23.5436L42.6179 30.9829L42.1665 30.3595H47.3477C47.7252 30.3595 48.031 30.6654 48.031 31.0428C48.031 31.4203 47.7252 31.7262 47.3477 31.7262H41.8183C41.2779 31.7262 40.8398 31.2882 40.8398 30.7477Z" fill="var(--fill-0, #015E55)"/>
<path id="Path 18" d="M28.7811 6.83023C28.3071 6.83023 27.8719 6.74538 27.475 6.57641C27.078 6.40672 26.7323 6.16849 26.437 5.86083C26.1418 5.55334 25.9138 5.19006 25.7538 4.7717C25.5939 4.35333 25.5137 3.89494 25.5137 3.39634C25.5137 2.89844 25.5939 2.44253 25.7538 2.03072C25.9138 1.6182 26.1398 1.26023 26.4324 0.955225C26.7245 0.65075 27.069 0.415177 27.466 0.249389C27.8629 0.0828937 28.3013 0 28.7811 0C29.3102 0 29.7874 0.105034 30.2115 0.314039C30.6363 0.523222 30.9852 0.816538 31.2592 1.1954C31.3763 1.35712 31.4741 1.53123 31.5524 1.71721C31.7139 2.10086 31.4433 2.52861 31.0272 2.52861C30.7836 2.52861 30.5667 2.37239 30.4903 2.14124C30.3865 1.8272 30.2168 1.57321 29.9809 1.37997C29.6547 1.11251 29.2577 0.978428 28.7901 0.978428C28.3783 0.978428 28.0182 1.07691 27.7108 1.27369C27.4025 1.47065 27.1629 1.74909 26.9907 2.10901C26.8184 2.4691 26.7323 2.89525 26.7323 3.3873C26.7323 3.89175 26.8184 4.32747 26.9907 4.69341C27.1629 5.05917 27.4057 5.34416 27.7198 5.54679C28.0338 5.75013 28.3932 5.8518 28.7999 5.8518C29.255 5.8518 29.6456 5.71771 29.9719 5.45026C30.2094 5.25489 30.3835 5.00019 30.4937 4.68562C30.5729 4.46014 30.7877 4.31011 31.0268 4.31011H31.0283C31.4466 4.31011 31.7191 4.74283 31.5513 5.12612C31.4716 5.30803 31.3744 5.47913 31.2592 5.63943C30.9852 6.02077 30.6363 6.3148 30.2115 6.52079C29.7874 6.72732 29.3102 6.83023 28.7811 6.83023Z" fill="var(--fill-0, #015E55)"/>
<path id="Path 19" d="M37.4475 0.69269V2.61678C37.4475 2.72128 37.3628 2.80577 37.2584 2.80577H34.4898C34.3853 2.80577 34.3007 2.72128 34.3007 2.61678V0.69269C34.3007 0.361115 34.0319 0.0927734 33.7006 0.0927734C33.3693 0.0927734 33.1006 0.361115 33.1006 0.69269V6.13781C33.1006 6.46885 33.3693 6.73755 33.7006 6.73755C34.0319 6.73755 34.3007 6.46885 34.3007 6.13781V3.93635C34.3007 3.83184 34.3853 3.74736 34.4898 3.74736H37.2584C37.3628 3.74736 37.4475 3.83184 37.4475 3.93635V6.13781C37.4475 6.46885 37.7161 6.73755 38.0475 6.73755C38.3789 6.73755 38.6474 6.46885 38.6474 6.13781V0.69269C38.6474 0.361115 38.3789 0.0927734 38.0475 0.0927734C37.7161 0.0927734 37.4475 0.361115 37.4475 0.69269Z" fill="var(--fill-0, #015E55)"/>
<path id="Path 20" d="M43.3457 6.83023C42.8651 6.83023 42.4223 6.74662 42.0161 6.58083C41.6101 6.41452 41.2579 6.17753 40.9595 5.86986C40.661 5.56238 40.4305 5.19786 40.2673 4.7763C40.1042 4.35475 40.0225 3.89175 40.0225 3.3873C40.0225 2.71636 40.1643 2.12725 40.4473 1.61961C40.7302 1.11251 41.1226 0.715578 41.6238 0.429347C42.1256 0.143115 42.6961 0 43.3359 0C43.988 0 44.5649 0.143115 45.0668 0.429347C45.568 0.715578 45.9604 1.11375 46.2434 1.62475C46.5263 2.13504 46.6682 2.7261 46.6682 3.39634C46.6682 3.90149 46.5864 4.36254 46.4233 4.78073C46.2602 5.1998 46.0297 5.56238 45.7312 5.86986C45.4327 6.17753 45.0805 6.41452 44.6745 6.58083C44.2683 6.74662 43.8255 6.83023 43.3457 6.83023ZM43.3359 5.8518C43.7543 5.8518 44.122 5.74694 44.4394 5.53776C44.7559 5.32857 45.0033 5.03791 45.1821 4.6656C45.3608 4.29311 45.4496 3.86447 45.4496 3.37827C45.4496 2.89844 45.3621 2.47813 45.1865 2.11822C45.0112 1.75812 44.7649 1.47845 44.4484 1.2783C44.131 1.07815 43.7607 0.978428 43.3359 0.978428C42.9176 0.978428 42.5498 1.07815 42.2331 1.2783C41.9165 1.47845 41.6719 1.75688 41.4995 2.11361C41.3274 2.47034 41.2411 2.89189 41.2411 3.37827C41.2411 3.87032 41.3286 4.30091 41.5041 4.67003C41.6794 5.03915 41.9257 5.32857 42.2422 5.53776C42.5595 5.74694 42.9241 5.8518 43.3359 5.8518Z" fill="var(--fill-0, #015E55)"/>
<path id="Path 21" d="M53.651 1.64738C53.3524 1.15197 52.9323 0.769384 52.391 0.49874C51.8495 0.228095 51.2155 0.0927734 50.4897 0.0927734H49.2438H48.7827C48.3747 0.0927734 48.0439 0.423462 48.0439 0.831554V5.99895C48.0439 6.40686 48.3747 6.73773 48.7827 6.73773H49.2438H50.4987C51.2188 6.73773 51.8476 6.59904 52.3864 6.32255C52.9244 6.04553 53.3448 5.65621 53.6464 5.15513C53.9474 4.65334 54.0984 4.06724 54.0984 3.39647C54.0984 2.72624 53.9487 2.1428 53.651 1.64738ZM52.5987 4.62411C52.411 4.98739 52.1384 5.27044 51.7815 5.47307C51.4247 5.6764 50.9942 5.77807 50.4897 5.77807H49.7201C49.457 5.77807 49.2438 5.56482 49.2438 5.30179V1.52853C49.2438 1.26551 49.457 1.05225 49.7201 1.05225H50.4897C51 1.05225 51.4325 1.14949 51.7861 1.34309C52.1404 1.53668 52.411 1.80927 52.5987 2.15962C52.7864 2.5105 52.8798 2.91665 52.8798 3.37823C52.8798 3.84584 52.7864 4.26084 52.5987 4.62411Z" fill="var(--fill-0, #015E55)"/>
<path id="Path 22" d="M50.8301 17.8959C49.9936 17.8959 49.3272 17.7035 48.8326 17.319C48.5426 17.0944 48.3231 16.8155 48.1734 16.4823C48.0071 16.1121 48.2814 15.6904 48.6869 15.6904C48.9205 15.6904 49.1215 15.8395 49.2072 16.0565C49.2999 16.2914 49.4502 16.4846 49.6579 16.6364C49.9655 16.8611 50.369 16.9731 50.8669 16.9731C51.2794 16.9731 51.5948 16.898 51.8131 16.7473C52.0318 16.5964 52.1405 16.386 52.1405 16.1146C52.1405 15.8749 52.0732 15.6806 51.938 15.5331C51.8027 15.3854 51.5747 15.2656 51.2548 15.1737L50.0549 14.8136C49.4457 14.6291 48.9982 14.3857 48.7119 14.0846C48.4258 13.7828 48.2826 13.4046 48.2826 12.9487C48.2826 12.5674 48.3813 12.2353 48.5787 11.9522C48.7754 11.6693 49.0539 11.4511 49.4139 11.2968C49.7734 11.1435 50.1934 11.0664 50.6734 11.0664C51.4116 11.0664 52.0008 11.2464 52.4412 11.6064C52.6746 11.7974 52.8548 12.0245 52.9816 12.2879C53.1561 12.6495 52.8675 13.0691 52.466 13.0691H52.4508C52.23 13.0691 52.0274 12.9382 51.9438 12.7341C51.8604 12.53 51.7384 12.3693 51.5779 12.2521C51.3376 12.0772 51.0146 11.9892 50.6086 11.9892C50.2517 11.9892 49.9689 12.0597 49.7597 12.2016C49.5506 12.3433 49.4457 12.5369 49.4457 12.7831C49.4457 12.9857 49.5091 13.1586 49.6354 13.2997C49.7609 13.4416 49.9967 13.5646 50.3412 13.6689L51.5591 14.038C52.1686 14.2167 52.6114 14.4595 52.8886 14.767C53.1658 15.0752 53.3036 15.4658 53.3036 15.9397C53.3036 16.5671 53.0867 17.0501 52.6528 17.3883C52.2196 17.7269 51.6117 17.8959 50.8301 17.8959Z" fill="var(--fill-0, #015E55)"/>
<path id="Path 23" d="M75.0211 17.9056C74.8924 17.9056 74.59 17.8677 74.3269 17.8251C74.0663 17.7832 73.876 17.5584 73.876 17.2945C73.8799 17.2229 73.8966 17.1111 73.9719 17.0169C74.2947 16.6123 75.2108 17.1285 75.6852 16.7328C75.8068 16.6315 75.9416 16.4353 75.9528 16.0137V11.7679C75.9528 11.4367 76.2213 11.168 76.5526 11.168C76.8842 11.168 77.1527 11.4367 77.1527 11.7679V16.0684C77.1527 16.6836 76.9713 17.1443 76.608 17.4484C76.2454 17.7528 75.7159 17.9056 75.0211 17.9056Z" fill="var(--fill-0, #015E55)"/>
<path id="Path 24" d="M96.9499 17.8959C96.1134 17.8959 95.4471 17.7035 94.9525 17.319C94.457 16.935 94.1661 16.3918 94.0801 15.6904H95.2332C95.289 16.0963 95.4702 16.4118 95.7778 16.6364C96.0854 16.8611 96.489 16.9731 96.9868 16.9731C97.3992 16.9731 97.7149 16.898 97.9327 16.7473C98.1517 16.5964 98.2606 16.386 98.2606 16.1146C98.2606 15.8749 98.1932 15.6806 98.0579 15.5331C97.9225 15.3854 97.6948 15.2656 97.3747 15.1737L96.1749 14.8136C95.5654 14.6291 95.1182 14.3857 94.8318 14.0846C94.5456 13.7828 94.4026 13.4046 94.4026 12.9487C94.4026 12.5674 94.501 12.2353 94.6984 11.9522C94.8954 11.6693 95.1738 11.4511 95.5338 11.2968C95.8932 11.1435 96.3134 11.0664 96.7932 11.0664C97.5313 11.0664 98.1208 11.2464 98.5612 11.6064C98.7916 11.7951 98.9703 12.019 99.097 12.2783C99.2754 12.6437 98.9816 13.0691 98.575 13.0691C98.3516 13.0691 98.1472 12.9361 98.062 12.7298C97.9785 12.5278 97.8572 12.3684 97.6979 12.2521C97.4576 12.0772 97.1344 11.9892 96.7286 11.9892C96.3716 11.9892 96.0889 12.0597 95.8795 12.2016C95.6704 12.3433 95.5654 12.5369 95.5654 12.7831C95.5654 12.9857 95.629 13.1586 95.7551 13.2997C95.8807 13.4416 96.1166 13.5646 96.4611 13.6689L97.6791 14.038C98.2886 14.2167 98.7313 14.4595 99.0084 14.767C99.2856 15.0752 99.4235 15.4658 99.4235 15.9397C99.4235 16.5671 99.2066 17.0501 98.7726 17.3883C98.3397 17.7269 97.7316 17.8959 96.9499 17.8959Z" fill="var(--fill-0, #015E55)"/>
<path id="Path 25" d="M102.414 17.213V12.3156C102.414 12.2068 102.326 12.1186 102.217 12.1186H100.683C100.421 12.1186 100.208 11.9057 100.208 11.6432C100.208 11.3807 100.421 11.168 100.683 11.168H105.344C105.607 11.168 105.82 11.3807 105.82 11.6432C105.82 11.9057 105.607 12.1186 105.344 12.1186H103.811C103.702 12.1186 103.614 12.2068 103.614 12.3156V17.213C103.614 17.5444 103.345 17.8129 103.014 17.8129C102.682 17.8129 102.414 17.5444 102.414 17.213Z" fill="var(--fill-0, #015E55)"/>
<path id="Path 26" d="M109.705 17.9053C109.225 17.9053 108.782 17.8217 108.375 17.6558C107.97 17.4895 107.617 17.2525 107.319 16.9449C107.02 16.6374 106.79 16.2729 106.627 15.8513C106.464 15.43 106.382 14.9668 106.382 14.4623C106.382 13.7916 106.524 13.2023 106.807 12.6948C107.09 12.1875 107.482 11.7906 107.983 11.5044C108.485 11.2183 109.056 11.0752 109.695 11.0752C110.347 11.0752 110.924 11.2183 111.426 11.5044C111.928 11.7906 112.32 12.1888 112.603 12.6998C112.886 13.2101 113.027 13.8011 113.027 14.4714C113.027 14.9765 112.946 15.4377 112.783 15.8559C112.62 16.2748 112.389 16.6374 112.09 16.9449C111.792 17.2525 111.44 17.4895 111.034 17.6558C110.628 17.8217 110.185 17.9053 109.705 17.9053ZM109.695 16.9268C110.114 16.9268 110.481 16.822 110.799 16.6128C111.115 16.4036 111.363 16.1129 111.542 15.7406C111.72 15.3681 111.809 14.9395 111.809 14.4535C111.809 13.9736 111.721 13.5533 111.546 13.1932C111.371 12.8332 111.125 12.5535 110.808 12.3534C110.491 12.1532 110.12 12.0534 109.695 12.0534C109.277 12.0534 108.909 12.1532 108.593 12.3534C108.276 12.5535 108.031 12.8319 107.859 13.1888C107.687 13.5454 107.601 13.9669 107.601 14.4535C107.601 14.9455 107.688 15.3761 107.864 15.7452C108.039 16.1143 108.285 16.4036 108.602 16.6128C108.919 16.822 109.284 16.9268 109.695 16.9268Z" fill="var(--fill-0, #015E55)"/>
<path id="Path 27" d="M122.389 11.168C122.137 11.168 121.917 11.337 121.853 11.58L120.717 15.843C120.664 16.0426 120.38 16.0396 120.331 15.8389L119.297 11.5915C119.236 11.343 119.013 11.168 118.758 11.168H118.243C117.988 11.168 117.766 11.3421 117.705 11.5899L116.659 15.8293C116.61 16.0297 116.326 16.0323 116.273 15.8329L115.14 11.58C115.075 11.337 114.856 11.168 114.604 11.168H114.549C114.181 11.168 113.914 11.5213 114.016 11.8759L115.607 17.4116C115.676 17.6493 115.893 17.8129 116.14 17.8129H116.659C116.912 17.8129 117.133 17.6415 117.196 17.3963L118.283 13.1677C118.334 12.9675 118.619 12.9679 118.67 13.1684L119.743 17.3947C119.805 17.6408 120.026 17.8129 120.281 17.8129H120.797C121.044 17.8129 121.261 17.6493 121.33 17.4116L122.922 11.8759C123.024 11.5213 122.757 11.168 122.389 11.168Z" fill="var(--fill-0, #015E55)"/>
<path id="Path 28" d="M0 6.13045V0.755995C0 0.346132 0.332285 0.0136719 0.742327 0.0136719H3.01625C3.50812 0.0136719 3.92985 0.0979825 4.28162 0.265895C4.63321 0.434162 4.90404 0.670622 5.09409 0.975628C5.28379 1.28063 5.37908 1.64196 5.37908 2.05891C5.37908 2.46966 5.28237 2.83082 5.08931 3.1422C4.89642 3.45358 4.6256 3.69465 4.27684 3.86592C3.92844 4.03702 3.50812 4.12258 3.01625 4.12258H1.94677C1.68374 4.12258 1.47048 3.9095 1.47048 3.64647C1.47048 3.38344 1.68374 3.17001 1.94677 3.17001H2.9601C3.34605 3.17001 3.64344 3.07082 3.8521 2.8712C4.06039 2.67229 4.1649 2.40129 4.1649 2.05891C4.1649 1.72291 4.06039 1.45811 3.8521 1.26522C3.64344 1.07216 3.34605 0.975628 2.9601 0.975628H1.21383V6.13045C1.21383 6.46556 0.942123 6.73745 0.607005 6.73745C0.271708 6.73745 0 6.46556 0 6.13045Z" fill="var(--fill-0, #015E55)"/>
<path id="Path 29" d="M10.73 3.66507C11.0846 3.50318 11.3572 3.27593 11.5469 2.98332C11.7369 2.69071 11.8318 2.35134 11.8318 1.96539C11.8318 1.57324 11.7369 1.23086 11.5469 0.938078C11.3572 0.64547 11.0846 0.418398 10.73 0.256508C10.375 0.0946172 9.95787 0.0136719 9.47858 0.0136719H7.37842C6.97033 0.0136719 6.63965 0.344361 6.63965 0.752453V6.09785C6.63965 6.4002 6.84617 6.68041 7.14462 6.72894C7.5249 6.79094 7.85347 6.49904 7.85347 6.13044V1.43774C7.85347 1.18251 8.06034 0.975627 8.31558 0.975627H9.44122C9.83937 0.975627 10.1414 1.06118 10.3468 1.23246C10.5523 1.40373 10.6552 1.64799 10.6552 1.96539C10.6552 2.2828 10.5509 2.53201 10.3421 2.7125C10.1338 2.89299 9.83353 2.98332 9.44122 2.98332H8.46455C8.20932 2.98332 8.00243 3.1902 8.00243 3.44543C8.00243 3.49396 8.00226 3.91888 8.22878 4.14844L10.2221 6.43368C10.3833 6.61859 10.6138 6.72806 10.858 6.73673C11.3485 6.75427 11.606 6.15489 11.2652 5.8017L9.43837 3.90772H9.47858C9.95787 3.90772 10.375 3.82696 10.73 3.66507Z" fill="var(--fill-0, #015E55)"/>
<path id="Path 30" d="M13.1484 6.04879C13.1484 5.94996 13.1789 5.8536 13.2355 5.77266L16.9396 0.489956L17.2666 0.975628H13.7414C13.4757 0.975628 13.2603 0.760246 13.2603 0.494738C13.2603 0.229054 13.4757 0.0136719 13.7414 0.0136719H17.4651C17.8456 0.0136719 18.154 0.322043 18.154 0.702504C18.154 0.801162 18.1235 0.897516 18.0668 0.978462L14.3998 6.2144L14.082 5.77549H17.7287C17.9943 5.77549 18.2097 5.99087 18.2097 6.25638C18.2097 6.52206 17.9943 6.73745 17.7287 6.73745H13.8371C13.4568 6.73745 13.1484 6.42907 13.1484 6.04879Z" fill="var(--fill-0, #015E55)"/>
<path id="Path 31" d="M24.5682 0.0386604C24.3124 -0.0390967 24.0501 0.0703654 23.9215 0.287164L22.6365 2.38678C22.4843 2.63564 22.1207 2.62909 21.9776 2.37509L20.8 0.286101C20.6992 0.117126 20.5172 0.013686 20.3204 0.013686H20.3032C19.8583 0.013686 19.5862 0.502015 19.8202 0.88035L21.6083 3.77047C21.6637 3.86027 21.6931 3.96371 21.6931 4.06928V6.16942C21.6931 6.48311 21.9475 6.73746 22.2612 6.73746H22.3393C22.6528 6.73746 22.9071 6.48311 22.9071 6.1696V4.07547C22.9071 3.96601 22.9388 3.85885 22.9984 3.76692L24.8463 0.912941C25.0622 0.579418 24.9483 0.154145 24.5682 0.0386604Z" fill="var(--fill-0, #015E55)"/>
<path id="Path 32" d="M60.5128 0.00818445C60.2189 0.0560077 60.0157 0.331966 60.0157 0.62971V4.87305C60.0157 4.99119 59.8585 5.03228 59.8008 4.9292L57.3035 0.474904C57.139 0.181588 56.829 3.67902e-05 56.4926 3.67902e-05H56.4567C55.9338 3.67902e-05 55.5098 0.423893 55.5098 0.946937V6.20041C55.5098 6.49815 55.7133 6.77411 56.007 6.82194C56.3814 6.88287 56.7053 6.59557 56.7053 6.23247V1.95672C56.7053 1.83858 56.8622 1.79766 56.9199 1.90057L59.4175 6.35522C59.582 6.64853 59.8921 6.83008 60.2284 6.83008H60.278C60.7932 6.83008 61.2109 6.41243 61.2109 5.89718V0.59765C61.2109 0.234725 60.8873 -0.0527459 60.5128 0.00818445Z" fill="var(--fill-0, #015E55)"/>
<path id="Path 33" d="M62.8623 6.21366V0.616566C62.8623 0.276135 63.1385 0 63.4791 0C63.8194 0 64.0956 0.276135 64.0956 0.616566V6.21366C64.0956 6.55409 63.8194 6.83023 63.4791 6.83023C63.1385 6.83023 62.8623 6.55409 62.8623 6.21366Z" fill="var(--fill-0, #015E55)"/>
<path id="Path 34" d="M70.9712 6.83022H71.049C71.4355 6.83022 71.7044 6.44551 71.5712 6.08259L69.5829 0.659607C69.4376 0.263382 69.0605 0 68.6386 0C68.217 0 67.8404 0.262851 67.6949 0.658367L65.6987 6.08206C65.5653 6.44498 65.8337 6.83022 66.2207 6.83022H66.2415C66.4786 6.83022 66.6895 6.67985 66.7672 6.45579L67.1982 5.20901C67.2143 5.16296 67.2573 5.13214 67.306 5.13214H69.9082C69.9568 5.13214 70.0002 5.16314 70.0159 5.20919L70.4454 6.45525C70.5224 6.67967 70.7337 6.83022 70.9712 6.83022ZM67.6184 3.99413L68.502 1.43966C68.5372 1.3371 68.6822 1.3371 68.7177 1.43966L69.5976 3.9943C69.6232 4.06834 69.568 4.14557 69.4898 4.14557H67.7263C67.6478 4.14557 67.5926 4.06834 67.6184 3.99413Z" fill="var(--fill-0, #015E55)"/>
<path id="Path 35" d="M30.3561 14.7867C30.7189 14.6213 30.9975 14.3887 31.1916 14.0896C31.386 13.7902 31.483 13.4432 31.483 13.0484C31.483 12.6472 31.386 12.2973 31.1916 11.9979C30.9975 11.6986 30.7189 11.4664 30.3561 11.3006C29.993 11.1351 29.5666 11.0522 29.0763 11.0522H26.9284C26.5112 11.0522 26.1729 11.3905 26.1729 11.8078V17.2748C26.1729 17.584 26.3841 17.8706 26.6894 17.9202C27.0783 17.9834 27.4143 17.685 27.4143 17.3081V12.5087C27.4143 12.2477 27.626 12.0362 27.8871 12.0362H29.0382C29.4453 12.0362 29.7543 12.1237 29.9643 12.2988C30.1745 12.474 30.2797 12.7238 30.2797 13.0484C30.2797 13.3731 30.173 13.628 29.9596 13.8124C29.7465 13.9971 29.4393 14.0896 29.0382 14.0896H28.0394C27.7784 14.0896 27.5666 14.301 27.5666 14.5621C27.5666 14.6117 27.5665 15.0464 27.7981 15.2811L29.8368 17.6182C30.0017 17.8074 30.2373 17.9191 30.487 17.9282C30.9889 17.9462 31.2521 17.333 30.9036 16.9719L29.0352 15.0348H29.0763C29.5666 15.0348 29.993 14.9521 30.3561 14.7867Z" fill="var(--fill-0, #015E55)"/>
<path id="Path 36" d="M32.8291 17.2244C32.8291 17.1233 32.8603 17.0248 32.9182 16.9421L36.7064 11.5395L37.0408 12.0362H33.4356C33.1639 12.0362 32.9437 11.8158 32.9437 11.5441C32.9437 11.2726 33.1639 11.0522 33.4356 11.0522H37.2438C37.6329 11.0522 37.9482 11.3677 37.9482 11.7567C37.9482 11.8576 37.9172 11.9561 37.8592 12.0388L34.109 17.3938L33.784 16.9449H37.5135C37.7851 16.9449 38.0054 17.1651 38.0054 17.4368C38.0054 17.7085 37.7851 17.9287 37.5135 17.9287H33.5333C33.1444 17.9287 32.8291 17.6134 32.8291 17.2244Z" fill="var(--fill-0, #015E55)"/>
<path id="Path 37" d="M44.5082 11.0778C44.2468 10.9983 43.9781 11.1102 43.8468 11.332L42.5324 13.4794C42.3767 13.7338 42.005 13.727 41.8586 13.4672L40.6543 11.3309C40.5513 11.1581 40.365 11.0523 40.1637 11.0523H40.1462C39.6912 11.0523 39.4129 11.5518 39.6522 11.9386L41.4808 14.8943C41.5377 14.9862 41.5679 15.0919 41.5679 15.2V17.3479C41.5679 17.6687 41.8279 17.9287 42.1487 17.9287H42.2287C42.5492 17.9287 42.8093 17.6687 42.8093 17.3479V15.2063C42.8093 15.0944 42.8417 14.9848 42.9024 14.8907L44.7928 11.9719C45.0135 11.631 44.8971 11.1959 44.5082 11.0778Z" fill="var(--fill-0, #015E55)"/>
<path id="Path 38" d="M54.5957 17.313V11.8618C54.5957 11.4461 54.9327 11.1089 55.3486 11.1089H57.6549C58.1537 11.1089 58.5816 11.1943 58.9383 11.3647C59.2951 11.5352 59.5696 11.7752 59.7624 12.0847C59.9547 12.3939 60.0515 12.7604 60.0515 13.1834C60.0515 13.5999 59.9531 13.9664 59.7576 14.2821C59.5617 14.5979 59.2873 14.8425 58.9332 15.0161C58.5798 15.1898 58.1537 15.2766 57.6549 15.2766H56.5703C56.3034 15.2766 56.087 15.0603 56.087 14.7934C56.087 14.5266 56.3034 14.3104 56.5703 14.3104H57.5979C57.9896 14.3104 58.2911 14.2094 58.5027 14.0073C58.714 13.8054 58.8199 13.5307 58.8199 13.1834C58.8199 12.8424 58.714 12.5741 58.5027 12.3783C58.2911 12.1824 57.9896 12.0847 57.5979 12.0847H56.3099C56.043 12.0847 55.8267 12.3009 55.8267 12.5677V17.313C55.8267 17.6529 55.5511 17.9285 55.2112 17.9285C54.8712 17.9285 54.5957 17.6529 54.5957 17.313Z" fill="var(--fill-0, #015E55)"/>
<path id="Path 39" d="M62.4344 16.4575V15.3684C62.4344 15.1065 62.6467 14.8941 62.9086 14.8941H65.2748C65.5368 14.8941 65.749 14.6819 65.749 14.4199C65.749 14.1581 65.5368 13.9458 65.2748 13.9458H62.9086C62.6467 13.9458 62.4344 13.7336 62.4344 13.4716V12.5796C62.4344 12.3178 62.6467 12.1055 62.9086 12.1055H65.5004C65.7624 12.1055 65.9746 11.8933 65.9746 11.6313V11.6123C65.9746 11.3506 65.7624 11.1382 65.5004 11.1382H62.4344H61.796H61.688C61.4262 11.1382 61.2139 11.3506 61.2139 11.6123V17.4248C61.2139 17.6866 61.4262 17.899 61.688 17.899H61.796H62.4344H65.6035C65.8654 17.899 66.0776 17.6866 66.0776 17.4248V17.4059C66.0776 17.1441 65.8654 16.9317 65.6035 16.9317H62.9086C62.6467 16.9317 62.4344 16.7195 62.4344 16.4575Z" fill="var(--fill-0, #015E55)"/>
<path id="Path 40" d="M70.3201 17.9518C69.8462 17.9518 69.411 17.8669 69.0141 17.698C68.6171 17.5283 68.2714 17.2901 67.9759 16.9824C67.6805 16.6749 67.4528 16.3117 67.2928 15.8933C67.133 15.4749 67.0527 15.0165 67.0527 14.5179C67.0527 14.02 67.133 13.5641 67.2928 13.1523C67.4528 12.7398 67.6789 12.3818 67.9714 12.0768C68.2637 11.7723 68.6078 11.5368 69.0051 11.371C69.4019 11.2045 69.8401 11.1216 70.3201 11.1216C70.8492 11.1216 71.3261 11.2266 71.7505 11.4356C72.1752 11.6448 72.5241 11.9381 72.7982 12.317C72.9153 12.4787 73.0132 12.6528 73.0912 12.8388C73.2531 13.2225 72.9822 13.6502 72.5661 13.6502C72.3226 13.6502 72.1055 13.494 72.0293 13.2628C71.9255 12.9488 71.7558 12.6948 71.5198 12.5015C71.1937 12.2341 70.7968 12.1 70.329 12.1C69.9174 12.1 69.5573 12.1985 69.2496 12.3953C68.9416 12.5923 68.702 12.8707 68.5297 13.2306C68.3576 13.5907 68.2714 14.0168 68.2714 14.5089C68.2714 15.0133 68.3576 15.4491 68.5297 15.815C68.702 16.1807 68.9447 16.4658 69.2587 16.6684C69.5728 16.8717 69.9321 16.9734 70.3388 16.9734C70.7941 16.9734 71.1847 16.8393 71.5107 16.5718C71.7485 16.3765 71.9225 16.1218 72.0328 15.8072C72.1118 15.5817 72.3268 15.4317 72.5657 15.4317H72.5673C72.9857 15.4317 73.2581 15.8644 73.0905 16.2477C73.0107 16.4296 72.9133 16.6007 72.7982 16.761C72.5241 17.1423 72.1752 17.4364 71.7505 17.6424C71.3261 17.8489 70.8492 17.9518 70.3201 17.9518Z" fill="var(--fill-0, #015E55)"/>
<path id="Path 41" d="M1.2195 16.4792V11.657C1.2195 11.3901 1.00323 11.1738 0.736305 11.1738H0.483195C0.216269 11.1738 0 11.3901 0 11.657V17.4455C0 17.7125 0.216269 17.9287 0.483195 17.9287H0.581676H1.2195H4.05774C4.32449 17.9287 4.54093 17.7125 4.54093 17.4455C4.54093 17.1788 4.32449 16.9624 4.05774 16.9624H1.70269C1.43577 16.9624 1.2195 16.7461 1.2195 16.4792Z" fill="var(--fill-0, #015E55)"/>
<path id="Path 42" d="M7.21462 16.4883V15.4C7.21462 15.1382 7.42682 14.9262 7.68844 14.9262H10.0527C10.3143 14.9262 10.5265 14.714 10.5265 14.4524C10.5265 14.1908 10.3143 13.9786 10.0527 13.9786H7.68844C7.42682 13.9786 7.21462 13.7666 7.21462 13.5048V12.6135C7.21462 12.3519 7.42682 12.1398 7.68844 12.1398H10.2782C10.5398 12.1398 10.752 11.9277 10.752 11.6661V11.6472C10.752 11.3855 10.5398 11.1733 10.2782 11.1733H7.21462H6.57677H6.46893C6.20714 11.1733 5.99512 11.3855 5.99512 11.6472V17.4546C5.99512 17.7164 6.20714 17.9285 6.46893 17.9285H6.57677H7.21462H10.3811C10.6429 17.9285 10.8549 17.7164 10.8549 17.4546V17.4359C10.8549 17.1741 10.6429 16.9621 10.3811 16.9621H7.68844C7.42682 16.9621 7.21462 16.7499 7.21462 16.4883Z" fill="var(--fill-0, #015E55)"/>
<path id="Path 43" d="M24.3385 17.9685H24.4172C24.8077 17.9685 25.0791 17.5799 24.9446 17.2132L22.9361 11.735C22.7894 11.3349 22.4084 11.0688 21.9822 11.0688C21.5565 11.0688 21.176 11.3344 21.0288 11.734L19.0126 17.2125C18.8776 17.5794 19.1489 17.9685 19.5399 17.9685H19.5608C19.8002 17.9685 20.0135 17.8165 20.0918 17.5903L20.5274 16.3308C20.5434 16.2842 20.5873 16.2531 20.6363 16.2531H23.2646C23.3139 16.2531 23.3576 16.2844 23.3737 16.3308L23.8073 17.5896C23.8855 17.8164 24.0987 17.9685 24.3385 17.9685ZM20.9517 15.1035L21.8441 12.523C21.8801 12.4194 22.0263 12.4196 22.0621 12.5232L22.9511 15.1037C22.9768 15.1785 22.9212 15.2566 22.842 15.2566H21.0607C20.9815 15.2566 20.9259 15.1785 20.9517 15.1035Z" fill="var(--fill-0, #015E55)"/>
<path id="Path 44" d="M17.3413 16.9881L14.7741 14.4276C14.7282 14.3819 14.7286 14.3075 14.775 14.2624L17.1134 11.9833C17.4706 11.6351 17.2241 11.0288 16.7251 11.0288H16.7191C16.5248 11.0288 16.3388 11.1067 16.2024 11.2451L13.6914 13.793C13.6185 13.867 13.4926 13.8153 13.4926 13.7115V11.6517C13.4926 11.3078 13.2138 11.0288 12.8698 11.0288C12.5258 11.0288 12.2471 11.3078 12.2471 11.6517V17.3057C12.2471 17.6497 12.5258 17.9285 12.8698 17.9285C13.2138 17.9285 13.4926 17.6497 13.4926 17.3057V15.0121C13.4926 14.9076 13.62 14.8564 13.6924 14.9317L16.3029 17.6514C16.4727 17.8284 16.7072 17.9285 16.9526 17.9285C17.4434 17.9285 17.6889 17.3347 17.3413 16.9881Z" fill="var(--fill-0, #015E55)"/>
<path id="Path 45" d="M83.5505 17.8937H83.6283C84.0148 17.8937 84.2833 17.509 84.1505 17.146L82.1621 11.7231C82.0167 11.3268 81.6397 11.0635 81.2179 11.0635C80.7963 11.0635 80.4195 11.3263 80.2739 11.7218L78.2779 17.1455C78.1442 17.5084 78.413 17.8937 78.7999 17.8937H78.8206C79.0577 17.8937 79.2688 17.7433 79.3462 17.5193L79.7774 16.2725C79.7933 16.2264 79.8366 16.1956 79.8852 16.1956H82.4873C82.5359 16.1956 82.5793 16.2266 82.5951 16.2727L83.0245 17.5187C83.1018 17.7431 83.313 17.8937 83.5505 17.8937ZM80.1976 15.0576L81.081 12.5031C81.1164 12.4006 81.2613 12.4006 81.2967 12.5031L82.1767 15.0578C82.2023 15.1318 82.1472 15.209 82.0688 15.209H80.3053C80.2269 15.209 80.1718 15.1318 80.1976 15.0576Z" fill="var(--fill-0, #015E55)"/>
<path id="Path 46" d="M91.4932 17.2151V11.618C91.4932 11.2776 91.7693 11.0015 92.1097 11.0015C92.4503 11.0015 92.7263 11.2776 92.7263 11.618V17.2151C92.7263 17.5555 92.4503 17.8317 92.1097 17.8317C91.7693 17.8317 91.4932 17.5555 91.4932 17.2151Z" fill="var(--fill-0, #015E55)"/>
<path id="Path 47" d="M86.8854 16.3903V11.5682C86.8854 11.3012 86.6691 11.085 86.4021 11.085H86.149C85.8823 11.085 85.666 11.3012 85.666 11.5682V17.3567C85.666 17.6236 85.8823 17.8399 86.149 17.8399H86.2475H86.8854H89.7237C89.9904 17.8399 90.2069 17.6236 90.2069 17.3567C90.2069 17.09 89.9904 16.8735 89.7237 16.8735H87.3686C87.1016 16.8735 86.8854 16.6572 86.8854 16.3903Z" fill="var(--fill-0, #015E55)"/>
<path id="Path 48" d="M109.716 9.20277C109.392 9.52673 109.256 9.9674 109.307 10.3895C109.314 10.4384 109.352 10.4772 109.401 10.4832C109.824 10.5347 110.264 10.3987 110.589 10.0747C110.912 9.7506 111.048 9.3101 110.997 8.88783C110.991 8.83895 110.952 8.80015 110.903 8.79433C110.481 8.74277 110.04 8.87862 109.716 9.20277Z" fill="var(--fill-0, #015E55)"/>
</g>
</g>
</svg>
