<svg preserveAspectRatio="none" width="100%" height="100%" overflow="visible" style="display: block;" viewBox="0 0 18.27 11.6906" fill="none" xmlns="http://www.w3.org/2000/svg">
<g id="Group 9">
<mask id="mask0_111_55" style="mask-type:alpha" maskUnits="userSpaceOnUse" x="0" y="0" width="19" height="12">
<rect id="Rectangle 56" width="18.27" height="11.6906" fill="var(--fill-0, black)"/>
</mask>
<g mask="url(#mask0_111_55)">
<path id="Path 53" d="M16.3861 0.0303701C16.3101 0.0123379 16.2323 0 16.1507 0H16.0847H2.18522H2.11926C2.03812 0 1.95982 0.0123379 1.88389 0.0303701C0.822364 0.178899 0 1.08336 0 2.18522V9.5049C0 10.7097 0.980383 11.6901 2.18522 11.6901H16.0847C17.2901 11.6901 18.27 10.7097 18.27 9.5049V2.18522C18.27 1.08383 17.4476 0.178899 16.3861 0.0303701ZM15.1499 1.4236L9.13474 5.79927L3.11957 1.4236H15.1499ZM16.8464 9.5049C16.8464 9.92533 16.5047 10.2665 16.0847 10.2665H2.18522C1.76526 10.2665 1.4236 9.92533 1.4236 9.5049V2.18522C1.4236 2.10882 1.43783 2.03622 1.45966 1.96646C1.48149 1.98592 1.50284 2.00727 1.52657 2.02483L8.54348 7.12938C8.72 7.25798 8.92785 7.32204 9.13474 7.32204C9.34259 7.32204 9.54996 7.25798 9.72791 7.12891L16.7434 2.02483C16.7676 2.00727 16.788 1.98592 16.8108 1.96646C16.8321 2.03622 16.8464 2.10882 16.8464 2.18522V9.5049Z" fill="var(--fill-0, #015E55)"/>
</g>
</g>
</svg>
