<svg preserveAspectRatio="none" width="100%" height="100%" overflow="visible" style="display: block;" viewBox="0 0 13.9338 13.8944" fill="none" xmlns="http://www.w3.org/2000/svg">
<g id="Group 1">
<mask id="mask0_111_32" style="mask-type:alpha" maskUnits="userSpaceOnUse" x="0" y="0" width="14" height="14">
<rect id="Rectangle 9" width="13.9336" height="13.8944" fill="var(--fill-0, black)"/>
</mask>
<g mask="url(#mask0_111_32)">
<path id="Path 1" d="M3.78591 4.94196C3.99009 4.35443 4.62218 4.16375 4.63673 3.48922C4.6428 3.19743 4.43877 2.92564 3.87959 2.02769C3.07667 0.737743 2.83671 0.00394613 2.10822 5.06255e-06C1.69713 -0.00226863 0.403088 0.761845 0.179506 1.25296C-0.0853051 1.83382 -0.0163359 2.53442 0.125847 3.09981C1.04367 6.75136 5.12331 10.4663 5.12331 10.4663C8.24178 13.279 10.8424 14.103 12.215 13.8515C13.1606 13.6782 13.9338 12.0688 13.9338 11.6756C13.8959 11.1878 13.3881 10.9022 12.8095 10.5503C11.1861 9.56286 10.7654 9.25622 10.4348 9.26228C9.68088 9.27607 9.43456 9.93332 8.81672 10.0603C7.89829 10.2492 6.78175 9.26941 5.69265 8.15499C4.49637 6.93083 3.49533 5.77746 3.78591 4.94196Z" fill="var(--fill-0, #015E55)"/>
</g>
</g>
</svg>
