<?xml version="1.0" encoding="UTF-8"?>
<svg id="Warstwa_1" xmlns="http://www.w3.org/2000/svg" viewBox="0 0 115.88 21.98">
  <defs>
    <style>
      .cls-1 {
        fill: #015e55;
      }
    </style>
  </defs>
  <path class="cls-1" d="M8.04,17.82l1-4.31c.08-.34-.04-.69-.3-.92l-3.34-2.9c-.63-.54-.29-1.58.53-1.65l4.42-.38c.35-.03.65-.25.79-.57l1.71-4.05c.32-.77,1.41-.77,1.73,0l1.71,4.05c.14.32.44.54.79.57l4.42.38c.83.07,1.16,1.1.53,1.65l-3.34,2.9c-.26.23-.38.58-.3.92l1,4.31c.19.81-.69,1.45-1.4,1.02l-3.79-2.28c-.3-.18-.67-.18-.97,0l-3.79,2.28c-.71.43-1.59-.21-1.4-1.02Z"/>
  <path class="cls-1" d="M29.84,17.82l1-4.31c.08-.34-.04-.69-.3-.92l-3.34-2.9c-.63-.54-.29-1.58.53-1.65l4.42-.38c.35-.03.65-.25.79-.57l1.71-4.05c.32-.77,1.41-.77,1.73,0l1.71,4.05c.14.32.44.54.79.57l4.42.38c.83.07,1.16,1.1.53,1.65l-3.34,2.9c-.26.23-.38.58-.3.92l1,4.31c.19.81-.69,1.45-1.4,1.02l-3.79-2.28c-.3-.18-.67-.18-.97,0l-3.79,2.28c-.71.43-1.59-.21-1.4-1.02Z"/>
  <path class="cls-1" d="M52.49,17.82l1-4.31c.08-.34-.04-.69-.3-.92l-3.34-2.9c-.63-.54-.29-1.58.53-1.65l4.42-.38c.35-.03.65-.25.79-.57l1.71-4.05c.32-.77,1.41-.77,1.73,0l1.71,4.05c.14.32.44.54.79.57l4.42.38c.83.07,1.16,1.1.53,1.65l-3.34,2.9c-.26.23-.38.58-.3.92l1,4.31c.19.81-.69,1.45-1.4,1.02l-3.79-2.28c-.3-.18-.67-.18-.97,0l-3.79,2.28c-.71.43-1.59-.21-1.4-1.02Z"/>
  <path class="cls-1" d="M74.3,17.82l1-4.31c.08-.34-.04-.69-.3-.92l-3.34-2.9c-.63-.54-.29-1.58.53-1.65l4.42-.38c.35-.03.65-.25.79-.57l1.71-4.05c.32-.77,1.41-.77,1.73,0l1.71,4.05c.14.32.44.54.79.57l4.42.38c.83.07,1.16,1.1.53,1.65l-3.34,2.9c-.26.23-.38.58-.3.92l1,4.31c.19.81-.69,1.45-1.4,1.02l-3.79-2.28c-.3-.18-.67-.18-.97,0l-3.79,2.28c-.71.43-1.59-.21-1.4-1.02Z"/>
  <path class="cls-1" d="M96.11,17.82l1-4.31c.08-.34-.04-.69-.3-.92l-3.34-2.9c-.63-.54-.29-1.58.53-1.65l4.42-.38c.35-.03.65-.25.79-.57l1.71-4.05c.32-.77,1.41-.77,1.73,0l1.71,4.05c.14.32.44.54.79.57l4.42.38c.83.07,1.16,1.1.53,1.65l-3.34,2.9c-.26.23-.38.58-.3.92l1,4.31c.19.81-.69,1.45-1.4,1.02l-3.79-2.28c-.3-.18-.67-.18-.97,0l-3.79,2.28c-.71.43-1.59-.21-1.4-1.02Z"/>
</svg>