<svg width="115" height="20" viewBox="0 0 115 20" fill="none" xmlns="http://www.w3.org/2000/svg">
<mask id="mask0_1_6413" style="mask-type:alpha" maskUnits="userSpaceOnUse" x="94" y="0" width="21" height="20">
<rect x="94.1741" y="1.02539" width="19.5925" height="18.8354" transform="rotate(-3 94.1741 1.02539)" fill="black"/>
</mask>
<g mask="url(#mask0_1_6413)">
<path d="M104.893 0.797679L106.838 6.56902C106.898 6.74938 107.065 6.87304 107.255 6.87952L113.694 7.10055C114.118 7.11507 114.294 7.64989 113.962 7.91409L109.003 11.8592C108.86 11.9729 108.799 12.161 108.847 12.3372L110.527 18.4733C110.639 18.879 110.188 19.2063 109.837 18.9756L104.497 15.4717C104.346 15.3726 104.151 15.3719 103.999 15.4695L98.7477 18.8518C98.3996 19.0759 97.9568 18.7582 98.0577 18.3568L99.5888 12.2639C99.6325 12.0896 99.5702 11.9062 99.4295 11.7948L94.6981 8.04813C94.3657 7.78504 94.5402 7.25044 94.9638 7.23412L101.295 6.98852C101.476 6.98139 101.636 6.86816 101.702 6.69959L104.036 0.776171C104.192 0.380118 104.757 0.39427 104.893 0.797679Z" fill="#015E55"/>
</g>
<mask id="mask1_1_6413" style="mask-type:alpha" maskUnits="userSpaceOnUse" x="70" y="0" width="22" height="20">
<rect x="70.6306" y="1.02539" width="19.5925" height="18.8354" transform="rotate(-3 70.6306 1.02539)" fill="black"/>
</mask>
<g mask="url(#mask1_1_6413)">
<path d="M81.3496 0.797679L83.2943 6.56902C83.355 6.74938 83.5212 6.87304 83.7113 6.87952L90.1505 7.10055C90.5745 7.11507 90.751 7.64989 90.4189 7.91409L85.4595 11.8592C85.3167 11.9729 85.2552 12.161 85.3035 12.3372L86.9839 18.4733C87.0951 18.879 86.645 19.2063 86.2933 18.9756L80.9534 15.4717C80.8025 15.3726 80.6075 15.3719 80.4557 15.4695L75.2043 18.8518C74.8561 19.0759 74.4134 18.7582 74.5143 18.3568L76.0453 12.2639C76.089 12.0896 76.0267 11.9062 75.886 11.7948L71.1547 8.04813C70.8223 7.78504 70.9968 7.25044 71.4204 7.23412L77.7519 6.98852C77.9327 6.98139 78.0925 6.86816 78.1589 6.69959L80.4923 0.776171C80.6482 0.380118 81.2137 0.39427 81.3496 0.797679Z" fill="#015E55"/>
</g>
<mask id="mask2_1_6413" style="mask-type:alpha" maskUnits="userSpaceOnUse" x="47" y="0" width="21" height="20">
<rect x="47.0872" y="1.02539" width="19.5925" height="18.8354" transform="rotate(-3 47.0872 1.02539)" fill="black"/>
</mask>
<g mask="url(#mask2_1_6413)">
<path d="M57.8061 0.797679L59.7509 6.56902C59.8115 6.74938 59.9777 6.87304 60.1678 6.87952L66.607 7.10055C67.031 7.11507 67.2075 7.64989 66.8754 7.91409L61.916 11.8592C61.7732 11.9729 61.7117 12.161 61.7601 12.3372L63.4404 18.4733C63.5516 18.879 63.1015 19.2063 62.7499 18.9756L57.41 15.4717C57.259 15.3726 57.064 15.3719 56.9123 15.4695L51.6608 18.8518C51.3127 19.0759 50.8699 18.7582 50.9708 18.3568L52.5019 12.2639C52.5456 12.0896 52.4833 11.9062 52.3426 11.7948L47.6112 8.04813C47.2788 7.78504 47.4533 7.25044 47.8769 7.23412L54.2084 6.98852C54.3893 6.98139 54.5491 6.86816 54.6154 6.69959L56.9489 0.776171C57.1048 0.380118 57.6702 0.39427 57.8061 0.797679Z" fill="#015E55"/>
</g>
<mask id="mask3_1_6413" style="mask-type:alpha" maskUnits="userSpaceOnUse" x="23" y="0" width="22" height="20">
<rect x="23.5435" y="1.02539" width="19.5925" height="18.8354" transform="rotate(-3 23.5435 1.02539)" fill="black"/>
</mask>
<g mask="url(#mask3_1_6413)">
<path d="M34.2624 0.797679L36.2072 6.56902C36.2678 6.74938 36.434 6.87304 36.6241 6.87952L43.0633 7.10055C43.4873 7.11507 43.6638 7.64989 43.3317 7.91409L38.3723 11.8592C38.2295 11.9729 38.168 12.161 38.2164 12.3372L39.8967 18.4733C40.0079 18.879 39.5578 19.2063 39.2061 18.9756L33.8663 15.4717C33.7153 15.3726 33.5203 15.3719 33.3686 15.4695L28.1171 18.8518C27.769 19.0759 27.3262 18.7582 27.4271 18.3568L28.9582 12.2639C29.0019 12.0896 28.9396 11.9062 28.7989 11.7948L24.0675 8.04813C23.7351 7.78504 23.9096 7.25044 24.3332 7.23412L30.6647 6.98852C30.8456 6.98139 31.0054 6.86816 31.0717 6.69959L33.4052 0.776171C33.5611 0.380118 34.1265 0.39427 34.2624 0.797679Z" fill="#015E55"/>
</g>
<mask id="mask4_1_6413" style="mask-type:alpha" maskUnits="userSpaceOnUse" x="0" y="0" width="21" height="20">
<rect y="1.02539" width="19.5925" height="18.8354" transform="rotate(-3 0 1.02539)" fill="black"/>
</mask>
<g mask="url(#mask4_1_6413)">
<path d="M10.719 0.797679L12.6637 6.56902C12.7244 6.74938 12.8906 6.87304 13.0806 6.87952L19.5198 7.10055C19.9439 7.11507 20.1204 7.64989 19.7883 7.91409L14.8289 11.8592C14.686 11.9729 14.6246 12.161 14.6729 12.3372L16.3533 18.4733C16.4644 18.879 16.0143 19.2063 15.6627 18.9756L10.3228 15.4717C10.1718 15.3726 9.97685 15.3719 9.8251 15.4695L4.57364 18.8518C4.22552 19.0759 3.78274 18.7582 3.88367 18.3568L5.4147 12.2639C5.45842 12.0896 5.39612 11.9062 5.2554 11.7948L0.524057 8.04813C0.191674 7.78504 0.366157 7.25044 0.78976 7.23412L7.12129 6.98852C7.3021 6.98139 7.46193 6.86816 7.52825 6.69959L9.86172 0.776171C10.0176 0.380118 10.5831 0.39427 10.719 0.797679Z" fill="#015E55"/>
</g>
</svg>
