<svg width="45" height="20" viewBox="0 0 45 20" fill="none" xmlns="http://www.w3.org/2000/svg">
<mask id="mask0_1_6391" style="mask-type:alpha" maskUnits="userSpaceOnUse" x="0" y="0" width="45" height="20">
<rect width="44.3625" height="19.8436" fill="black"/>
</mask>
<g mask="url(#mask0_1_6391)">
<path d="M4.67999 19.5718C4.14014 19.5718 3.7073 19.1027 3.76941 18.5666C4.0895 15.832 4.78987 13.1404 5.87149 10.4927C7.08592 7.52115 8.80771 4.58493 11.0369 1.68502L11.1181 2.36437H0.909627C0.407039 2.36437 0 1.95733 0 1.45474V0.910115C0 0.407527 0.407039 0.000488281 0.909627 0.000488281H12.709C13.2116 0.000488281 13.6186 0.407527 13.6186 0.910115V1.81592C13.6186 1.99651 13.5622 2.17518 13.46 2.32424C12.1519 4.23809 11.0445 6.11276 10.1387 7.95113C9.1966 9.86306 8.458 11.7702 7.92388 13.6726C7.46143 15.3189 7.13751 17.012 6.95406 18.7529C6.90438 19.2164 6.52314 19.5718 6.05781 19.5718H4.67999Z" fill="white"/>
<path d="M22.9432 19.8441C20.9682 19.8441 19.3811 19.3234 18.1858 18.2809C17.2485 17.464 16.5939 16.4378 16.2242 15.2033C16.0665 14.674 16.4697 14.136 17.023 14.136H18.3138C18.6607 14.136 18.9836 14.35 19.0878 14.6816C19.3391 15.4747 19.7538 16.1129 20.3337 16.5964C21.0398 17.185 21.8835 17.4793 22.861 17.4793C23.912 17.4793 24.7949 17.1401 25.5115 16.4598C26.2282 15.7804 26.5855 14.716 26.5855 13.2656C26.5855 11.8342 26.232 10.7517 25.5249 10.0179C24.8188 9.28403 23.912 8.91617 22.8065 8.91617C22.0632 8.91617 21.4029 9.07478 20.822 9.39296C20.3872 9.63088 20.0442 9.9223 19.7929 10.2672C19.6372 10.4803 19.4107 10.6294 19.147 10.6294H17.8657C17.3803 10.6294 17 10.2137 17.043 9.7312L17.8466 0.752459C17.8848 0.327266 18.2412 0.000488281 18.6683 0.000488281H27.7168C28.1735 0.000488281 28.5424 0.370263 28.5424 0.826032V1.53978C28.5424 1.99555 28.1735 2.36533 27.7168 2.36533H19.2731L20.5239 1.74044L19.9525 9.02605L19.1642 8.83591C19.5273 8.21962 20.0652 7.71703 20.7819 7.32623C21.4975 6.93735 22.3804 6.74243 23.4324 6.74243C24.6459 6.74243 25.7246 7.00423 26.6667 7.53071C27.6088 8.05623 28.3427 8.8082 28.8682 9.78662C29.3947 10.765 29.6565 11.925 29.6565 13.2656C29.6565 14.6443 29.3803 15.8215 28.8281 16.7999C28.2748 17.7783 27.4961 18.5303 26.49 19.0558C25.4848 19.5823 24.3019 19.8441 22.9432 19.8441Z" fill="white"/>
<path d="M32.8374 9.83726V9.1388C32.8374 8.71552 33.1795 8.37345 33.6028 8.37345H43.5972C44.0195 8.37345 44.3625 8.71552 44.3625 9.1388V9.83726C44.3625 10.2596 44.0195 10.6017 43.5972 10.6017H33.6028C33.1795 10.6017 32.8374 10.2596 32.8374 9.83726ZM37.4581 14.8393V4.1091C37.4581 3.68677 37.8002 3.34375 38.2225 3.34375H38.9764C39.3988 3.34375 39.7418 3.68677 39.7418 4.1091V14.8393C39.7418 15.2616 39.3988 15.6036 38.9764 15.6036H38.2225C37.8002 15.6036 37.4581 15.2616 37.4581 14.8393Z" fill="white"/>
</g>
</svg>
