<svg width="45" height="31" viewBox="0 0 45 31" fill="none" xmlns="http://www.w3.org/2000/svg">
<mask id="mask0_1_6395" style="mask-type:alpha" maskUnits="userSpaceOnUse" x="0" y="0" width="45" height="31">
<rect width="44.1011" height="30.2529" fill="black"/>
</mask>
<g mask="url(#mask0_1_6395)">
<path d="M1.5807 30.2528C1.15393 30.2528 0.726115 30.08 0.415261 29.7396C-0.174833 29.0958 -0.130576 28.0958 0.513259 27.5067L14.0212 15.1358C14.5997 14.6047 15.4848 14.5816 16.0918 15.0821L21.4532 19.4973L38.8705 3.03468C39.5038 2.4351 40.5037 2.46144 41.1044 3.09685C41.704 3.7312 41.6766 4.73225 41.0412 5.33183L22.6112 22.7523C22.0306 23.3002 21.135 23.3297 20.5217 22.8239L15.1423 18.395L2.64814 29.8376C2.34571 30.1158 1.96215 30.2528 1.5807 30.2528Z" fill="white"/>
<path d="M33.4734 2.94053L41.1594 10.6265L42.5197 1.5791L33.4734 2.94053Z" fill="white"/>
<path d="M41.1591 12.2072C40.746 12.2072 40.3424 12.046 40.0411 11.7436L32.3561 4.05863C31.9346 3.63608 31.7861 3.01226 31.9726 2.4464C32.1591 1.87949 32.6491 1.46642 33.2381 1.37791L42.2845 0.0164786C42.7882 -0.0562295 43.2824 0.1071 43.6375 0.461157C43.9926 0.816267 44.158 1.31785 44.0832 1.81521L42.7218 10.8626C42.6333 11.4517 42.2202 11.9417 41.6533 12.1282C41.491 12.1819 41.3245 12.2072 41.1591 12.2072ZM36.8061 4.03755L40.0621 7.29466L40.6396 3.4601L36.8061 4.03755Z" fill="white"/>
</g>
</svg>
