<?xml version="1.0" encoding="UTF-8"?>
<svg id="Warstwa_1" xmlns="http://www.w3.org/2000/svg" viewBox="0 0 55.35 55.06">
  <defs>
    <style>
      .cls-1 {
        fill: #fff;
      }
    </style>
  </defs>
  <circle cx="27.675" cy="27.53" r="27.53" fill="#015e55"/>
  <path class="cls-1" d="M36.6,24.12l-6.48-9.18c-.2-.28-.44-.52-.72-.72-1.35-.96-3.23-.63-4.18.72l-6.48,9.18c-.36.51-.55,1.11-.55,1.73,0,1.66,1.34,3,3,3h3.92v12.32c0,1.1.9,2,2,2h1.11c1.1,0,2-.9,2-2v-12.32h3.92c.62,0,1.22-.19,1.73-.55,1.35-.96,1.68-2.83.72-4.18Z"/>
</svg>