<svg width="25" height="25" viewBox="0 0 25 25" fill="none" xmlns="http://www.w3.org/2000/svg">
<mask id="mask0_1_6485" style="mask-type:alpha" maskUnits="userSpaceOnUse" x="0" y="0" width="25" height="25">
<rect x="0.125" y="0.125" width="24.107" height="24.107" fill="black" stroke="#015E55" stroke-width="0.25"/>
</mask>
<g mask="url(#mask0_1_6485)">
<path d="M12.1785 24.232C5.53241 24.232 0.125 18.8246 0.125 12.1785C0.125 5.53241 5.53241 0.125 12.1785 0.125C18.8246 0.125 24.232 5.53241 24.232 12.1785C24.232 18.8246 18.8246 24.232 12.1785 24.232ZM12.1785 1.77511C6.44217 1.77511 1.77511 6.44162 1.77511 12.1785C1.77511 17.9154 6.44217 22.5819 12.1785 22.5819C17.9154 22.5819 22.5819 17.9154 22.5819 12.1785C22.5819 6.44162 17.9154 1.77511 12.1785 1.77511Z" fill="#015E55" stroke="#015E55" stroke-width="0.25"/>
<path d="M20.2898 13.6443H11.662C11.2065 13.6443 10.8369 13.2747 10.8369 12.8192V4.62974C10.8369 4.17431 11.2065 3.80469 11.662 3.80469C12.118 3.80469 12.487 4.17431 12.487 4.62974V11.9942H20.2898C20.7453 11.9942 21.1149 12.3638 21.1149 12.8192C21.1149 13.2747 20.7453 13.6443 20.2898 13.6443Z" fill="#015E55" stroke="#015E55" stroke-width="0.25"/>
</g>
</svg>
