<svg width="40" height="40" viewBox="0 0 40 40" fill="none" xmlns="http://www.w3.org/2000/svg">
<mask id="mask0_1_6387" style="mask-type:alpha" maskUnits="userSpaceOnUse" x="0" y="0" width="40" height="40">
<rect width="39.9478" height="39.9478" fill="black"/>
</mask>
<g mask="url(#mask0_1_6387)">
<path d="M19.9739 39.9478C8.96064 39.9478 0 30.9872 0 19.9739C0 8.96064 8.96064 0 19.9739 0C30.9872 0 39.9478 8.96064 39.9478 19.9739C39.9478 30.9872 30.9872 39.9478 19.9739 39.9478ZM19.9739 2.7344C10.4682 2.7344 2.7344 10.4673 2.7344 19.9739C2.7344 29.4805 10.4682 37.2134 19.9739 37.2134C29.4805 37.2134 37.2134 29.4805 37.2134 19.9739C37.2134 10.4673 29.4805 2.7344 19.9739 2.7344Z" fill="white"/>
<path d="M33.4152 22.4029H19.1179C18.3632 22.4029 17.7507 21.7904 17.7507 21.0357V7.46486C17.7507 6.71016 18.3632 6.09766 19.1179 6.09766C19.8735 6.09766 20.4851 6.71016 20.4851 7.46486V19.6685H33.4152C34.1699 19.6685 34.7824 20.281 34.7824 21.0357C34.7824 21.7904 34.1699 22.4029 33.4152 22.4029Z" fill="white"/>
</g>
</svg>
