<svg width="28" height="28" viewBox="0 0 28 28" fill="none" xmlns="http://www.w3.org/2000/svg">
<path d="M21.8673 0H5.33735C2.38834 0 0 2.38949 0 5.33734V21.8546C0 24.8024 2.38834 27.1919 5.33735 27.1919H14.5115L14.5323 16.7623L10.981 16.716L10.9498 12.5891C10.9498 12.5891 14.4722 12.5891 14.4722 12.6029C14.5439 11.3117 14.3763 9.91518 14.5531 8.63547C14.8294 6.63324 15.4618 5.96044 16.1311 5.2911C17.5634 3.85995 20.9124 4.23219 22.9273 4.23219C22.9273 4.23219 22.9447 7.90371 22.9447 7.99619C21.732 7.99619 20.969 7.96729 19.998 8.13375C19.6743 8.1904 18.8489 8.23664 18.7472 9.7568C18.6882 10.6689 18.7518 11.5833 18.7738 12.4977L22.7701 12.5324L22.2337 16.6721L18.7437 16.701L18.7691 27.185L14.5115 27.1919H21.8673C24.8151 27.1919 27.2058 24.8024 27.2058 21.8546V5.33734C27.2058 2.38949 24.8151 0 21.8673 0Z" fill="#015E55"/>
</svg>
