<svg width="39" height="38" viewBox="0 0 39 38" fill="none" xmlns="http://www.w3.org/2000/svg">
<path d="M27.4468 8.84119C27.4468 7.64323 28.4815 6.67188 29.7587 6.67188C31.0359 6.67188 32.0706 7.64323 32.0706 8.84119C32.0706 10.0391 31.0359 11.0105 29.7587 11.0105C28.4815 11.0105 27.4468 10.0391 27.4468 8.84119Z" fill="#015E55"/>
<path d="M29.7586 11.1958C28.3815 11.1958 27.2612 10.1404 27.2612 8.84104C27.2612 7.54326 28.3815 6.48633 29.7586 6.48633C31.1356 6.48633 32.2559 7.54326 32.2559 8.84104C32.2559 10.1404 31.1356 11.1958 29.7586 11.1958ZM29.7586 6.85871C28.586 6.85871 27.6336 7.74767 27.6336 8.84104C27.6336 9.93442 28.586 10.8234 29.7586 10.8234C30.9312 10.8234 31.8835 9.93442 31.8835 8.84104C31.8835 7.74767 30.9312 6.85871 29.7586 6.85871Z" fill="#015E55"/>
<path d="M19.2244 28.9139C13.4152 28.9139 8.68994 24.4121 8.68994 18.8771C8.68994 13.3436 13.4152 8.8418 19.2244 8.8418C25.0335 8.8418 29.7588 13.3436 29.7588 18.8771C29.7588 24.4121 25.0335 28.9139 19.2244 28.9139ZM19.2244 12.694C15.5402 12.694 12.5421 15.4686 12.5421 18.8771C12.5421 22.2871 15.5402 25.0602 19.2244 25.0602C22.9085 25.0602 25.9066 22.2871 25.9066 18.8771C25.9066 15.4686 22.9085 12.694 19.2244 12.694Z" fill="#015E55"/>
<path d="M0.240723 8.97393C0.240723 8.97393 0.264492 27.6896 0.264492 27.7752C0.264492 30.8319 0.898331 32.8491 2.84263 34.6983C4.64591 36.4128 6.95308 37.4365 9.5027 37.4809C14.4118 37.568 29.1993 37.4492 29.3007 37.4492C31.5239 37.4492 32.9896 36.7504 34.5441 35.7378C36.0986 34.7253 37.4725 33.1644 38.0873 31.4705C38.6371 29.9572 38.7734 28.5532 38.7655 26.9512C38.7449 22.6538 38.5706 9.67432 38.5706 9.61252C38.5785 6.868 37.2316 4.16784 35.0274 2.39468C32.1482 0.0779927 30.0233 0.242791 27.1377 0.242791C24.455 0.242791 9.52964 0.269729 9.52964 0.269729L9.80219 3.32167C9.80219 3.32167 27.789 3.24561 27.9253 3.25036C29.2547 3.29473 31.4906 4.04266 33.1766 5.64627C34.3302 6.74282 35.3174 9.07059 35.3174 10.8216C35.3174 15.8432 35.4252 21.3544 35.4252 25.8816C35.4252 32.4545 32.1023 34.4891 26.6576 34.4891C22.7737 34.4891 10.997 34.4606 10.9669 34.459C8.65811 34.3766 6.50623 33.2183 5.54754 32.2279C4.41931 31.0648 3.83142 29.5943 3.81875 27.4852C3.79181 23.1719 3.70149 10.1893 3.70149 10.1449C3.70149 7.80925 4.17211 7.02012 5.31144 5.7873C6.45077 4.55448 8.13203 3.32484 10.6753 3.32484C10.6753 3.32484 9.57718 0.215853 9.6168 0.263391C6.73282 0.263391 4.74098 1.43599 3.01219 2.99841C1.2818 4.56082 0.240723 6.85691 0.240723 8.97393Z" fill="#015E55"/>
<path d="M15.0886 37.7538C12.8178 37.7538 10.8117 37.7459 9.49967 37.7221C6.94847 37.6761 4.589 36.6921 2.67797 34.873C0.768531 33.0586 0.0253536 31.0684 0.0253536 27.7756C0.0253536 27.69 0 8.97429 0 8.97429C0 6.76694 1.09337 4.40747 2.85069 2.8197C4.29268 1.51716 6.36375 0.0228873 9.61693 0.0228873H10.6152L10.6073 0.0276411C14.0807 0.0213027 24.8941 0.0022875 27.1378 0.0022875L27.675 0.000702898C30.3245 -0.0056355 32.4146 -0.0151429 35.1781 2.20647C37.4615 4.04302 38.8195 6.81131 38.8116 9.61288C38.8116 9.63031 38.8163 9.92029 38.8227 10.4163C38.932 18.9573 38.9954 24.5208 39.0065 26.95C39.016 28.8372 38.8148 30.1715 38.314 31.5532C37.7135 33.2076 36.3539 34.8476 34.6758 35.9394C33.0167 37.0201 31.5399 37.6904 29.3024 37.6904L29.0584 37.692C25.9874 37.7142 19.9358 37.7538 15.0886 37.7538ZM0.481718 8.97429C0.481718 8.99489 0.505487 27.69 0.505487 27.7756C0.505487 30.9194 1.20746 32.8114 3.00915 34.5244C4.83303 36.2579 7.07999 37.1976 9.50759 37.2404C13.6133 37.3148 24.5454 37.2435 29.0552 37.2103L29.3024 37.2087C31.421 37.2087 32.8281 36.5685 34.4127 35.5369C36.0053 34.499 37.2951 32.9477 37.8608 31.3884C38.3425 30.0637 38.5343 28.7786 38.5248 26.9516C38.5137 24.524 38.4519 18.962 38.341 10.421C38.3346 9.91396 38.3299 9.6208 38.3299 9.6113C38.3378 6.95551 37.0463 4.32824 34.877 2.58201C32.245 0.466575 30.3245 0.474498 27.6766 0.482421L27.1378 0.484006C24.7229 0.484006 12.3836 0.50619 9.94811 0.509359C10.1335 1.05446 10.5423 2.22231 10.845 3.07641C14.9111 3.05898 27.8145 3.00669 27.9349 3.00986C29.342 3.05739 31.6349 3.84811 33.3431 5.47074C34.5649 6.63383 35.5584 9.03292 35.5584 10.8219C35.5584 13.3969 35.5869 16.1097 35.6154 18.7354C35.6408 21.2755 35.6662 23.6762 35.6662 25.882C35.6662 32.0017 32.8884 34.7304 26.6577 34.7304C22.9513 34.7304 11.0019 34.7018 10.9559 34.7003C8.67885 34.6179 6.42396 33.4801 5.37496 32.3962C4.16274 31.1428 3.5907 29.5836 3.57802 27.4872C3.55742 24.15 3.49879 15.6249 3.47344 11.9153C3.46552 10.8283 3.46076 10.1548 3.46076 10.1453C3.46076 7.70185 3.99636 6.85409 5.1341 5.62286C6.4303 4.22207 7.8818 3.41234 9.54721 3.16515L9.30952 0.509359C6.39703 0.599681 4.50501 1.97353 3.17395 3.17624C1.51329 4.67686 0.481718 6.89846 0.481718 8.97429ZM10.677 3.56447C8.66934 3.56447 6.97224 4.34567 5.48905 5.95087C4.38934 7.13774 3.94248 7.85081 3.94248 10.1453C3.94248 10.1643 3.94724 10.8346 3.95516 11.9121C3.98051 15.6217 4.03914 24.1468 4.05974 27.484C4.07242 29.4489 4.60009 30.9036 5.72199 32.0619C6.70285 33.0745 8.82305 34.1409 10.9765 34.2185C11.1286 34.2201 22.9466 34.2486 26.6577 34.2486C32.6348 34.2486 35.1844 31.7466 35.1844 25.882C35.1844 23.6778 35.1607 21.2787 35.1337 18.7402C35.1052 16.1145 35.0783 13.3985 35.0783 10.8219C35.0783 9.17553 34.1307 6.88579 33.0104 5.82094C31.3941 4.28387 29.2374 3.53594 27.9175 3.48999C27.7146 3.4789 15.0394 3.5407 11.0145 3.55654L11.0177 3.56447H10.677ZM9.91642 1.89271L10.0226 3.07958C10.1129 3.07958 10.2159 3.07799 10.3348 3.07799C10.17 2.61371 10.0321 2.22231 9.91642 1.89271Z" fill="#015E55"/>
</svg>
