<svg width="28" height="18" viewBox="0 0 28 18" fill="none" xmlns="http://www.w3.org/2000/svg">
<mask id="mask0_1_6482" style="mask-type:alpha" maskUnits="userSpaceOnUse" x="0" y="0" width="28" height="18">
<rect width="27.7015" height="17.7256" fill="black"/>
</mask>
<g mask="url(#mask0_1_6482)">
<path d="M24.8451 0.046048C24.7299 0.018707 24.6119 0 24.4882 0H24.3882H3.3133H3.21329C3.09025 0 2.97154 0.018707 2.85642 0.046048C1.24689 0.271251 0 1.64262 0 3.3133V14.4116C0 16.2384 1.48649 17.7249 3.3133 17.7249H24.3882C26.2157 17.7249 27.7015 16.2384 27.7015 14.4116V3.3133C27.7015 1.64334 26.4546 0.271251 24.8451 0.046048ZM22.9708 2.1585L13.8504 8.79301L4.72999 2.1585H22.9708ZM25.543 14.4116C25.543 15.0491 25.0249 15.5664 24.3882 15.5664H3.3133C2.67654 15.5664 2.1585 15.0491 2.1585 14.4116V3.3133C2.1585 3.19746 2.18008 3.08737 2.21318 2.98161C2.24628 3.01111 2.27866 3.04348 2.31463 3.07011L12.9539 10.8098C13.2215 11.0048 13.5367 11.1019 13.8504 11.1019C14.1655 11.1019 14.4799 11.0048 14.7498 10.809L25.3868 3.07011C25.4235 3.04348 25.4545 3.01111 25.489 2.98161C25.5214 3.08737 25.543 3.19746 25.543 3.3133V14.4116Z" fill="#015E55"/>
</g>
</svg>
