<svg width="64" height="64" viewBox="0 0 64 64" fill="none" xmlns="http://www.w3.org/2000/svg">
<path d="M17.3129 22.5997C18.2466 19.9129 21.1372 19.0409 21.2037 15.9562C21.2315 14.6219 20.2984 13.379 17.7413 9.27264C14.0696 3.37371 12.9723 0.0180457 9.64085 2.31511e-05C7.76096 -0.0103745 1.84332 3.48393 0.82088 5.72982C-0.390099 8.38607 -0.0747038 11.5899 0.575496 14.1755C4.77268 30.8741 23.4288 47.8625 23.4288 47.8625C37.6895 60.725 49.5824 64.4931 55.8591 63.3432C60.1831 62.5509 63.719 55.1907 63.719 53.3926C63.5457 51.162 61.2236 49.856 58.5777 48.2465C51.1538 43.7311 49.2302 42.3288 47.7184 42.3566C44.2706 42.4196 43.1441 45.4253 40.3188 46.0061C36.1188 46.8698 31.0129 42.3891 26.0324 37.2929C20.5618 31.6948 15.9841 26.4204 17.3129 22.5997Z" fill="#015E55"/>
</svg>
